<?xml version="1.0" encoding="utf-8"?>
<!-- Generator: Adobe Illustrator 25.2.1, SVG Export Plug-In . SVG Version: 6.00 Build 0)  -->
<svg version="1.1" id="Camada_1" xmlns="http://www.w3.org/2000/svg" xmlns:xlink="http://www.w3.org/1999/xlink" x="0px" y="0px"
	 viewBox="0 0 60 60" style="enable-background:new 0 0 60 60;" xml:space="preserve">
<style type="text/css">
	.st0{fill:#1D1D1D;}
	.st1{fill:#AAAAAA;}
	.st2{fill:#919191;}
	.st3{fill:#777777;}
	.st4{fill:#333333;}
	.st5{fill:#4D4D4D;}
	.st6{fill:#686868;}
	.st7{fill:#828282;}
	.st8{fill:#9C9C9C;}
	.st9{fill:#B7B7B7;}
	.st10{fill:#3B3B3B;}
	.st11{fill:#565656;}
	.st12{fill:#707070;}
	.st13{fill:#8A8A8A;}
	.st14{fill:#A5A5A5;}
	.st15{fill:#737373;}
	.st16{fill:#5D5D5D;}
	.st17{fill:#5E5E5E;}
	.st18{fill:#C8F2FE;}
	.st19{fill:#010101;}
	.st20{fill:#FE5D5D;}
	.st21{fill:#72D7FE;}
	.st22{fill:#FEC56C;}
	.st23{fill:#9FE457;}
	.st24{fill:#FEFEFE;}
	.st25{fill:#F3F3F3;}
	.st26{fill:#4DB9F5;}
</style>
<g>
	<path d="M41.3,25.5c0.9,0.5,1.1,0.9,0.8,1.9c-0.6,2.1-1.5,4.2-2.8,6c-0.2,0.3-0.2,0.5,0.1,0.8c1.2,1.1,2.3,2.3,3.4,3.4
		c0.2,0.2,0.4,0.3,0.7,0.2c0.5-0.2,0.9,0,1.2,0.3c0.4,0.3,0.7,0.7,1,1c4.2,4.2,8.4,8.4,12.5,12.6c1.4,1.4,2,3,1.4,5
		c-0.6,1.8-1.8,2.9-3.6,3.3c-0.1,0-0.2,0-0.3,0.1c-0.4,0-0.8,0-1.2,0c-1.1,0-2-0.4-2.8-1.2c-0.2-0.2-0.3-0.1-0.4,0.1
		c-0.2,0.7-0.7,0.9-1.4,0.9c-16.2,0-32.3,0-48.5,0c-1,0-1.2-0.1-1.4-0.9c0-0.2,0-0.5,0-0.7c0.1-0.3,0.2-0.6,0.5-0.7
		C1,57.3,1.1,57,1.1,56.6c0-1.5,0-3.1,0-4.6c0-2.7,0-5.5,0-8.2c0-1.5,0.5-2,2-2c2.1,0,4.2,0,6.3,0c1.4,0,1.9,0.5,2,1.9
		c0,4.2,0,8.3,0,12.5c0,1,0,1,1.1,1c1.6,0,1.4,0.2,1.4-1.4c0-1.6,0-3.2,0-4.9c0-1.4,0.5-1.9,1.9-1.9c1.5,0,3,0,4.4,0
		c0.7,0,1.4,0,2,0c1.2,0.1,1.7,0.6,1.7,1.8c0,1.8,0,3.6,0,5.4c0,0.9,0,0.9,1,0.9c0.3,0,0.6,0,0.9,0c0.4,0,0.6-0.2,0.6-0.6
		c0-0.2,0-0.4,0-0.6c0-3.3,0-6.5,0-9.8c0-0.3,0-0.6,0.1-0.9c0.2-0.7,0.6-1.1,1.3-1.1c2.5,0,5,0,7.5,0c0.7,0,1,0.4,1.2,1
		c0.1,0.3,0.1,0.7,0.1,1c0,3.3,0,6.7,0,10c0,1,0,1,1,1c0.3,0,0.6,0,0.9,0c0.5,0,0.6-0.2,0.6-0.6c0-1.6,0-3.1,0-4.7
		c0-1.2,0.5-1.7,1.7-1.8c0.8-0.1,1.5,0,2.3,0c-0.1-0.3-0.3-0.4-0.4-0.5c-1.4-1.4-2.7-2.7-4.1-4.1c-0.6-0.6-1.1-1.2-0.8-2.1
		c0.1-0.2-0.1-0.4-0.2-0.6c-1-1.1-2.1-2.1-3.1-3.2c-0.3-0.4-0.6-0.2-1,0c-2.1,1.4-4.3,2.3-6.7,2.9c-4.7,1.1-9.4,0.7-13.8-1.3
		c-5.1-2.3-8.7-6.1-11-11.1c-0.9-2-1.5-4.1-1.6-6.3c0-0.1,0-0.2-0.1-0.2c0-0.2,0-0.3,0-0.5c0.1-0.1,0.1-0.2,0.1-0.3
		c0-0.1,0-0.1,0-0.2c0-0.1,0-0.2,0-0.2c0-0.1,0-0.2,0-0.2c0-0.1,0-0.2,0-0.2c0-0.1,0-0.2,0-0.2c0-0.1,0-0.3,0-0.4c0-0.1,0-0.2,0-0.2
		c0-0.1,0-0.2,0-0.2c0-0.1,0-0.2,0-0.2c0-0.1,0-0.1,0-0.2c0-0.1,0-0.2-0.1-0.3c0-0.2,0-0.4,0-0.6c0.2-1.2,0.3-2.3,0.6-3.5
		C1.6,12.6,3.2,9.6,5.5,7C7.1,5.2,9,3.7,11.1,2.6c2.2-1.2,4.4-2,6.9-2.4c0.5-0.1,0.9,0,1.4-0.2c0.2,0,0.3,0,0.5,0
		c0.1,0.1,0.2,0.1,0.3,0.1c0.1,0,0.1,0,0.2,0c0.1,0,0.1,0,0.2,0c0.1,0,0.2,0,0.3-0.1c0.5,0,1.1,0,1.6,0c0.1,0.1,0.2,0.1,0.2,0.1
		c0.1,0,0.2,0,0.2-0.1c0.1,0,0.2,0,0.4,0c0.8,0.3,1.7,0.2,2.6,0.5c8.3,2,13.7,7.1,16.3,15.2c0.3,0.8,0,1.2-0.8,1.7
		c-0.5,0.2-1,0.1-1.3-0.4c-0.2-0.3-0.3-0.6-0.4-1C37.2,8.8,32.3,4.3,24.8,2.8C19.1,1.7,13.9,3.2,9.4,6.9c-3.8,3.2-6.1,7.3-6.7,12.3
		c-0.4,3.6,0.1,7.1,1.7,10.4c2.3,4.7,5.9,8,10.9,9.7c1.7,0.6,3.5,0.9,5.3,1c5.1,0.2,9.6-1.4,13.4-4.7c2.6-2.2,4.4-5,5.5-8.3
		c0.2-0.5,0.3-1,0.6-1.5C40.4,25.4,40.9,25.2,41.3,25.5z"/>
	<path class="st0" d="M0.2,21.2c0,0.2,0,0.3,0,0.5c0,0-0.1,0-0.1,0c0-0.2,0-0.3,0-0.5C0.1,21.2,0.1,21.2,0.2,21.2z"/>
	<path class="st1" d="M20.1,0.1c-0.1,0-0.2,0.1-0.2-0.1C19.9,0,20,0,20.1,0.1C20.1,0,20.1,0,20.1,0.1C20.1,0.1,20.1,0.1,20.1,0.1z"
		/>
	<path class="st2" d="M20.1,0.1C20.1,0.1,20.1,0,20.1,0.1C20.1,0,20.2,0,20.3,0c0,0,0.1,0,0,0.1c0,0,0,0,0,0
		C20.2,0.1,20.1,0.1,20.1,0.1z"/>
	<path class="st3" d="M20.3,0.1C20.3,0.1,20.3,0,20.3,0.1C20.4,0,20.5,0,20.5,0c0,0,0.1,0,0,0.1c0,0,0,0,0,0
		C20.4,0.1,20.4,0.1,20.3,0.1z"/>
	<path class="st4" d="M0.1,21.7c0,0,0.1,0,0.1,0c0,0.1,0,0.2,0,0.2c0,0-0.1,0-0.1,0C0.1,21.8,0.1,21.8,0.1,21.7z"/>
	<path class="st5" d="M0.1,21.9c0,0,0.1,0,0.1,0c0,0.1,0,0.2,0,0.2c0,0-0.1,0-0.1,0C0.1,22.1,0.1,22,0.1,21.9z"/>
	<path class="st6" d="M0.1,22.1C0.1,22.2,0.1,22.2,0.1,22.1c0.1,0.1,0.1,0.2,0.1,0.2c0,0-0.1,0-0.1,0C0.1,22.3,0.1,22.2,0.1,22.1z"
		/>
	<path class="st7" d="M0.1,22.4C0.1,22.4,0.1,22.4,0.1,22.4c0.1,0.1,0.1,0.2,0.1,0.2c0,0-0.1,0-0.1,0C0.1,22.5,0.1,22.5,0.1,22.4z"
		/>
	<path class="st8" d="M0.1,22.6C0.1,22.6,0.1,22.6,0.1,22.6c0.1,0.1,0.1,0.2,0.1,0.2c0,0-0.1,0-0.1,0C0.1,22.8,0.1,22.7,0.1,22.6z"
		/>
	<path class="st9" d="M0.1,22.9C0.1,22.9,0.1,22.9,0.1,22.9c0.1,0.1,0.2,0.2,0,0.2C0.1,23,0.1,22.9,0.1,22.9z"/>
	<path class="st10" d="M0.2,21.2c0,0-0.1,0-0.1,0c0-0.1,0-0.2,0-0.2c0-0.1,0.1-0.1,0.1,0C0.2,21,0.2,21.1,0.2,21.2z"/>
	<path class="st11" d="M0.2,21c0,0-0.1,0-0.1,0c0-0.1,0-0.2,0-0.2c0-0.1,0.1-0.1,0.1,0C0.2,20.8,0.2,20.9,0.2,21z"/>
	<path class="st12" d="M0.2,20.7C0.1,20.7,0.1,20.7,0.2,20.7c-0.1-0.1-0.1-0.2-0.1-0.2c0,0,0.1-0.1,0.1,0
		C0.2,20.6,0.2,20.7,0.2,20.7z"/>
	<path class="st13" d="M0.2,20.5C0.1,20.5,0.1,20.5,0.2,20.5c-0.1-0.1-0.1-0.2-0.1-0.2c0-0.1,0.1-0.1,0.1,0
		C0.2,20.3,0.2,20.4,0.2,20.5z"/>
	<path class="st14" d="M0.2,20.3C0.1,20.3,0.1,20.3,0.2,20.3c-0.1-0.1-0.1-0.2-0.1-0.2C0.2,20.1,0.2,20.2,0.2,20.3z"/>
	<path class="st15" d="M22.9,0c0,0.1-0.1,0.1-0.2,0.1c0,0-0.1,0,0-0.1c0,0,0,0,0,0C22.7,0,22.8,0,22.9,0z"/>
	<path class="st16" d="M22.6,0C22.6,0,22.6,0.1,22.6,0c-0.1,0.1-0.2,0.1-0.2,0C22.5,0,22.6,0,22.6,0z"/>
	<path class="st17" d="M20.5,0.1C20.5,0.1,20.5,0,20.5,0.1C20.6,0,20.7,0,20.8,0C20.7,0.1,20.6,0.1,20.5,0.1z"/>
	<path class="st18" d="M41.3,25.5c-0.9,0.1-1.2,0.3-1.4,1.2c-1,3.4-2.7,6.3-5.3,8.7c-3,2.8-6.5,4.5-10.6,5.1c-4.7,0.6-9.1-0.4-13-3
		c-4.1-2.7-6.8-6.5-8-11.3C0.8,17.4,5,8.2,13.2,4.3c9.6-4.7,21.2-0.5,25.7,9.2c0.4,0.9,0.7,1.8,1,2.7c0.3,0.9,0.6,1.1,1.5,1.1
		c0.2,1,0.4,1.9,0.4,2.9c0,0.2-0.2,0.2-0.3,0.3c-0.8,0.5-0.8,1.4,0,1.9c0.1,0.1,0.3,0.1,0.3,0.3C41.7,23.7,41.6,24.6,41.3,25.5z"/>
	<path class="st19" d="M41.7,22.7c-0.8-0.3-1.1-0.6-1.1-1.2c0-0.6,0.3-1,1.1-1.3c1,0.2,1.4,0.8,1.2,1.6
		C42.7,22.5,42.3,22.7,41.7,22.7z"/>
	<path class="st20" d="M54.8,57.7c-0.3,0-0.9-0.2-1.4-0.7c-3.1-3.1-6.1-6.1-9.2-9.2c-0.2-0.2-0.2-0.3,0-0.5c1-1,2-2,3-3
		c0.2-0.2,0.3-0.2,0.5,0c3,3,6.1,6.1,9.1,9.1c0.8,0.8,1,1.8,0.5,2.7C57,57.1,56.1,57.7,54.8,57.7z"/>
	<path class="st20" d="M8.7,50.8c0,2,0,4.1,0,6.1c0,0.4-0.1,0.5-0.5,0.5c-1.4,0-2.8,0-4.1,0c-0.4,0-0.5-0.1-0.5-0.5
		c0-4.1,0-8.1,0-12.2c0-0.4,0.1-0.5,0.5-0.5c1.4,0,2.8,0,4.1,0c0.4,0,0.5,0.1,0.5,0.5C8.7,46.8,8.7,48.8,8.7,50.8z"/>
	<path class="st21" d="M33.9,52.1c0,1.6,0,3.2,0,4.8c0,0.4-0.1,0.6-0.5,0.6c-1.4,0-2.8,0-4.1,0c-0.4,0-0.5-0.1-0.5-0.5
		c0-3.2,0-6.5,0-9.7c0-0.4,0.1-0.5,0.5-0.5c1.4,0,2.8,0,4.1,0c0.4,0,0.5,0.1,0.5,0.5C33.9,48.9,33.9,50.5,33.9,52.1z"/>
	<path class="st22" d="M21.3,54.5c0,0.8,0,1.7,0,2.5c0,0.3-0.1,0.4-0.4,0.4c-1.4,0-2.9,0-4.3,0c-0.4,0-0.4-0.1-0.4-0.4
		c0-1.7,0-3.3,0-5c0-0.3,0.1-0.4,0.4-0.4c1.4,0,2.8,0,4.3,0c0.4,0,0.4,0.2,0.4,0.5C21.3,52.9,21.3,53.7,21.3,54.5z"/>
	<path class="st23" d="M43.8,57.4c-0.7,0-1.4,0-2,0c-0.3,0-0.5-0.1-0.5-0.4c0-1.3,0-2.6,0-3.9c0-0.3,0.1-0.4,0.4-0.4
		c1.2,0,2.5,0,3.7,0c0.5,0,1,0.4,1,1c0,1.1,0,2.2,0,3.3c0,0.4-0.1,0.5-0.5,0.5C45.3,57.4,44.6,57.4,43.8,57.4z"/>
	<path class="st18" d="M41.5,39.5c-0.1,0.1-0.1,0.1-0.1,0.2c-0.5,0.5-1.1,1.1-1.6,1.6c-0.2,0.2-0.2,0.1-0.4,0
		c-1.2-1.2-2.3-2.3-3.5-3.5c-0.2-0.1-0.1-0.2,0-0.4c0.5-0.5,1.1-1,1.6-1.6c0.2-0.2,0.3-0.1,0.4,0c1.1,1.1,2.3,2.3,3.4,3.4
		C41.4,39.4,41.4,39.4,41.5,39.5z"/>
	<path class="st24" d="M42.4,45.8c-0.1-0.1-0.2-0.2-0.3-0.2c-0.5-0.5-0.9-0.9-1.4-1.4c-0.2-0.2-0.2-0.3,0-0.6c1-1,2-1.9,2.9-2.9
		c0.2-0.2,0.3-0.2,0.6,0c0.5,0.5,1,1,1.4,1.4c0.1,0.1,0.2,0.2,0,0.4c-1,1-2.1,2.1-3.1,3.1C42.5,45.7,42.4,45.8,42.4,45.8z"/>
	<path class="st25" d="M48.8,55.8c0.6,0.6,1.2,1.1,1.7,1.6c-0.4,0-0.8,0-1.3,0c-0.3,0-0.4,0-0.4-0.4C48.8,56.6,48.8,56.2,48.8,55.8z
		"/>
	<path d="M34.4,12.8c0,0.5-0.3,0.9-0.6,1.3c-0.6,0.7-0.6,1.4-0.2,2.3c0.4,0.9,0.8,1.5,1.9,1.6c0.2,0,0.5,0.1,0.7,0.2
		c0.5,0.2,0.8,0.5,0.8,1.1c0,1.5,0,3,0,4.5c0,0.6-0.3,0.9-0.9,1.1c-0.1,0-0.2,0.1-0.3,0.1c-1.8,0-2.2,1.4-2.7,2.7
		c-0.1,0.2,0,0.3,0.1,0.5c0.3,0.5,0.6,0.9,0.8,1.4c0.3,0.6,0.3,1.1-0.2,1.5c-1,1-2,2-3,3c-0.5,0.5-1,0.5-1.6,0.2
		c-0.1,0-0.1-0.1-0.2-0.1c-1.3-1.3-2.5-0.5-3.7,0c-0.2,0.1-0.2,0.3-0.3,0.5c-0.1,0.5-0.2,1-0.4,1.5c-0.2,0.6-0.6,0.9-1.2,1
		c-1.4,0-2.8,0-4.3,0c-0.6,0-1-0.3-1.2-0.9c0-0.1-0.1-0.1-0.1-0.2c0.1-1.8-1.4-2.2-2.7-2.7c-0.2-0.1-0.3,0-0.5,0.1
		c-0.5,0.3-0.9,0.6-1.4,0.8C13,34.5,12.5,34.5,12,34C11,33,10,32,9,31c-0.5-0.5-0.5-1-0.2-1.6c0-0.1,0.1-0.1,0.1-0.2
		c1.3-1.3,0.5-2.5,0-3.7c-0.1-0.2-0.3-0.2-0.5-0.3C8,25.1,7.5,25,7,24.8c-0.7-0.2-1-0.5-1-1.2c0-1.4,0-2.9,0-4.3
		c0-0.6,0.4-1.1,1-1.2c0.2,0,0.3-0.1,0.5-0.1c0.5-0.2,1.2-0.1,1.5-0.5c0.4-0.7,0.6-1.4,1-2.2c0.1-0.2-0.1-0.3-0.1-0.4
		c-0.3-0.5-0.6-0.9-0.8-1.4C8.5,12.9,8.5,12.5,9,12c1-1,2-2,3-3c0.4-0.4,1-0.5,1.5-0.2c0.1,0,0.2,0.1,0.3,0.1c1.3,1.3,2.5,0.5,3.7,0
		c0.2-0.1,0.2-0.3,0.2-0.4c0.1-0.5,0.3-1.1,0.4-1.6c0.2-0.7,0.5-1,1.2-1c1.4,0,2.8,0,4.3,0c0.7,0,1,0.4,1.2,1c0,0.1,0.1,0.2,0.1,0.3
		c0,1.8,1.4,2.1,2.6,2.6c0.2,0.1,0.3,0,0.5-0.1c0.5-0.3,0.9-0.6,1.4-0.8C30.1,8.4,30.5,8.5,31,9c1,1,2,2,3,3
		C34.3,12.2,34.4,12.5,34.4,12.8z"/>
	<path class="st26" d="M12.3,15.2c-0.1-0.7-0.5-1.1-0.8-1.6c-0.3-0.4-0.3-0.7,0.1-1c0.4-0.3,0.8-0.7,1.1-1.1
		c0.2-0.2,0.3-0.2,0.6-0.1c2,1.2,1.5,1.1,3.7,0.2c0.6-0.2,1.1-0.5,1.7-0.7c0.6-0.2,1-0.6,1.1-1.3c0.3-1.4,0.3-1.4,1.8-1.4
		c1.1,0,1.2,0,1.4,1.1c0.2,0.9,0.6,1.4,1.5,1.7c0.8,0.3,1.7,0.6,2.5,1c0.6,0.3,1.2,0.2,1.8-0.1c1.2-0.7,1.2-0.7,2.1,0.3
		c0.9,0.9,0.9,0.9,0.2,1.9c-0.4,0.7-0.5,1.3-0.1,2c0.4,0.8,0.7,1.7,1.1,2.5c0.3,0.7,0.7,1.1,1.4,1.3c1.3,0.3,1.3,0.3,1.3,1.6
		c0,1.3,0,1.3-1.3,1.6c-0.7,0.2-1.1,0.5-1.4,1.2c-0.3,0.9-0.7,1.9-1.1,2.8c-0.3,0.6-0.2,1.2,0.1,1.8c0.7,1.1,0.7,1.2-0.2,2.1
		c-0.9,0.9-0.9,0.9-2,0.2c-0.6-0.4-1.2-0.5-1.9-0.2c-0.9,0.4-1.8,0.8-2.7,1.1c-0.7,0.2-1,0.7-1.1,1.3c-0.3,1.3-0.3,1.3-1.6,1.3
		c-1.3,0-1.3,0-1.6-1.2c-0.2-0.7-0.5-1.2-1.2-1.4c-0.9-0.3-1.8-0.7-2.6-1.1c-0.7-0.3-1.3-0.3-1.9,0.1c-1.1,0.7-1.1,0.7-2-0.2
		c-0.9-0.9-1-0.9-0.2-2c0.4-0.6,0.4-1.2,0.1-1.9c-0.4-0.9-0.8-1.8-1.1-2.8c-0.2-0.6-0.6-1-1.3-1.1c-1.4-0.3-1.4-0.3-1.4-1.7
		c0-1.2,0-1.2,1.1-1.4c0.8-0.2,1.3-0.6,1.6-1.4c0.3-0.9,0.7-1.8,1.1-2.8C12.2,15.6,12.3,15.3,12.3,15.2z"/>
	<path class="st24" d="M15.3,18.3c0.4-0.7,0.8-1.2,1.3-1.8c0.1,0,0.3,0,0.4,0.1c0.9,0.4,1.5-0.1,1.5-1.1c0-0.1-0.1-0.3,0-0.4
		c0.6-0.2,1.2-0.5,1.8-0.5c0.5,0.9,1.3,0.9,2.2,1c3.7,0.6,6,4.7,4.5,8.2c-1.5,3.5-5.6,4.7-8.8,2.7c-2-1.3-2.9-3.3-2.6-5.7
		C15.7,19.9,15.9,19,15.3,18.3z"/>
	<path d="M15.3,18.3c0.7,0.4,0.8,1,0.6,1.8c-0.9,3.9,2,7.4,6,7.3c3.6-0.1,6.3-3.9,5.3-7.4c-0.8-2.5-2.7-4-5.3-4.3
		c-1-0.1-1.2-0.3-1.5-1.1c0.1-0.9,0.5-1.3,1.4-1.3c4.1,0.1,7.7,3.4,7.9,7.5c0.3,4.4-2.7,8.1-6.9,8.7c-5.9,0.8-10.7-4.6-9.1-10.3
		C13.9,18.5,14.3,18.2,15.3,18.3z"/>
	<path class="st19" d="M18.5,15.1c0.2,0.7,0.1,1.2-0.4,1.6c-0.5,0.3-1,0.3-1.6-0.2c-0.2-0.5-0.4-0.9,0-1.4
		C17,14.4,17.8,14.4,18.5,15.1z"/>
</g>
</svg>
