<?xml version="1.0" encoding="utf-8"?>
<!-- Generator: Adobe Illustrator 25.2.1, SVG Export Plug-In . SVG Version: 6.00 Build 0)  -->
<svg version="1.1" id="Camada_1" xmlns="http://www.w3.org/2000/svg" xmlns:xlink="http://www.w3.org/1999/xlink" x="0px" y="0px"
	 viewBox="0 0 60 60" style="enable-background:new 0 0 60 60;" xml:space="preserve">
<style type="text/css">
	.st0{fill:#010101;}
	.st1{fill:#D7D7E3;}
	.st2{fill:#FE5D5D;}
	.st3{fill:#9FE457;}
	.st4{fill:#FDD99A;}
	.st5{fill:#98BAFE;}
	.st6{fill:#D7FA92;}
	.st7{fill:#CBCBD6;}
	.st8{fill:#FCFCFC;}
	.st9{fill:#FBB07D;}
</style>
<g>
	<path d="M13.8,0c0.9,0.3,1.7,0.7,2.2,1.6c0.3,0.6,0.4,1.2,0.4,1.8c0,3.7,0,7.4,0,11.1c0,2.1-1.3,3.4-3.4,3.4c-3.2,0-6.4,0-9.7,0
		c-2.1,0-3.4-1.3-3.4-3.4c0-3.5,0-7,0-10.5c0-2.3,0.5-3,2.6-3.9C6.3,0,10.1,0,13.8,0z"/>
	<path d="M60,13.8c-0.3,0.9-0.7,1.7-1.6,2.1c-0.6,0.3-1.2,0.4-1.8,0.4c-3.7,0-7.4,0-11.1,0c-2.1,0-3.4-1.3-3.4-3.4c0-3,0-6.1,0-9.1
		c0-2.3,0.5-3,2.6-3.9c4.2,0,8.4,0,12.7,0C59,0.3,59.7,1,60,2.6C60,6.3,60,10.1,60,13.8z"/>
	<path d="M60,45.7c-0.4,0.8-0.9,1.1-1.5,0.9c-0.5-0.2-0.8-0.5-0.8-1c-0.1-0.5-0.3-0.7-0.8-0.7c-0.3,0-0.5,0-0.8-0.1
		c-0.2,0-0.4-0.1-0.7-0.2c0,1.4,0,2.7,0,4.1c0,2.1,0,4.2,0,6.3c0,2.7-1.7,4.6-4.3,5c-2.1,0.3-4.3-1.1-5-3.1c-0.8-2.2,0-4.6,2-5.8
		c1.5-0.9,3.1-1,4.6-0.2c0.1,0,0.1,0.1,0.2,0.1c0,0,0,0,0.1,0c0-1.1,0-2.3,0-3.4c0-1.7,0-3.3,0-5c0-0.6,0.1-1.1,0.7-1.4
		c0.6-0.2,1.1,0,1.5,0.5c0.3,0.4,0.7,0.7,1.2,0.7c1.7,0,2.9,0.8,3.5,2.5C60,45.2,60,45.4,60,45.7z"/>
	<path d="M60,30.3c-0.3,0.7-0.9,0.9-1.6,0.8c-2.3,0-4.6,0-7,0c-1,0-1.6-0.8-1.2-1.6c0.2-0.5,0.6-0.7,1.2-0.7c2.5,0,4.9,0,7.4,0
		c0.6,0,1,0.4,1.3,0.9C60,30,60,30.2,60,30.3z"/>
	<path d="M30.4,0c0.6,0.4,0.9,0.9,0.8,1.6c0,1.3,0,2.6,0,3.9c0,0.9-0.4,1.4-1.2,1.5c-0.8,0-1.2-0.5-1.2-1.5c0-1.3,0-2.6,0-4
		c0-0.7,0.3-1.2,0.9-1.5C30,0,30.2,0,30.4,0z"/>
	<path d="M29.5,60c-1.2,0-2.4,0-3.6,0c-2.4,0-4-1.6-4.1-4c0-2.1,0-4.3,0-6.4c0-2.2-0.8-4-2.5-5.4c-3.6-2.9-5.8-6.6-6.4-11.2
		c-0.7-5.3,0.7-10.1,4.4-14.1c2.9-3.2,6.6-5.1,11-5.6c4.2-0.4,8.1,0.5,11.5,2.9c4,2.7,6.5,6.4,7.3,11.2c1.2,7-1.2,12.8-6.8,17.1
		c-2,1.6-3.1,3.5-3,6c0,1.8,0,3.6,0,5.3c0,2.5-1.6,4.1-4.2,4.1C31.8,60,30.6,60,29.5,60z"/>
	<path d="M8.9,60c-1.7,0-3.4,0-5,0C1.5,60,0,58.5,0,56.2c0-2.5,0-5.1,0-7.6c0-2.2,1.3-3.7,3.5-3.8c3.7-0.1,7.3-0.1,11,0
		c1.8,0.1,3.2,1.5,3.3,3.3c0.1,2.8,0.1,5.7,0,8.5c-0.1,2-1.6,3.4-3.6,3.4C12.4,60,10.7,60,8.9,60z"/>
	<path d="M5,28.8c1.2,0,2.4,0,3.6,0c0.9,0,1.4,0.4,1.4,1.1c0,0.7-0.5,1.2-1.4,1.2c-2.4,0-4.8,0-7.1,0c-1,0-1.7-0.8-1.3-1.6
		c0.2-0.5,0.7-0.7,1.2-0.7C2.6,28.8,3.8,28.8,5,28.8z"/>
	<path class="st0" d="M31.2,9.8c0,0.6-0.6,1.2-1.2,1.2c-0.6,0-1.2-0.6-1.2-1.2c0-0.6,0.6-1.2,1.2-1.2C30.6,8.7,31.2,9.2,31.2,9.8z"
		/>
	<path class="st1" d="M2.3,8.9c0-1.8,0-3.6,0-5.4c0-0.9,0.3-1.1,1.1-1.1c3.2,0,6.3,0,9.5,0c0.9,0,1.1,0.3,1.1,1.1
		c0,3.6,0,7.3,0,10.9c0,0.9-0.3,1.1-1.1,1.1c-3.2,0-6.3,0-9.5,0c-0.9,0-1.1-0.3-1.1-1.1C2.3,12.5,2.3,10.7,2.3,8.9z"/>
	<path class="st2" d="M51.1,2.3c1.8,0,3.6,0,5.4,0c0.9,0,1.1,0.3,1.1,1.1c0,3.2,0,6.3,0,9.5c0,0.9-0.3,1.1-1.1,1.1
		c-3.6,0-7.3,0-10.9,0c-0.9,0-1.1-0.3-1.1-1.1c0-3.2,0-6.3,0-9.5c0-0.9,0.3-1.1,1.1-1.1C47.5,2.3,49.3,2.3,51.1,2.3z"/>
	<path class="st3" d="M50.6,57.6c-1.3,0-2.4-1.1-2.4-2.5c0-1.3,1.1-2.4,2.4-2.4c1.3,0,2.5,1.1,2.5,2.5
		C53.1,56.5,51.9,57.7,50.6,57.6z"/>
	<path class="st4" d="M29.5,48.7c-1.6,0-3.2,0-4.9,0c-0.4,0-0.5-0.1-0.6-0.5c-0.2-2.3-1.3-4.2-3-5.6c-1.8-1.5-3.3-3.1-4.3-5.2
		c-2.4-4.9-2.3-9.7,0.4-14.4c2.3-3.9,5.7-6.3,10.2-7.1c8-1.5,15.9,3.8,17.4,11.9c1.1,5.9-0.8,10.8-5.4,14.6
		c-1.3,1.1-2.7,2.1-3.4,3.7c-0.3,0.7-0.7,1.4-0.8,2.2c-0.1,0.4-0.3,0.5-0.7,0.5C32.7,48.6,31.1,48.7,29.5,48.7z"/>
	<path class="st1" d="M29.5,51c1.6,0,3.2,0,4.7,0c0.4,0,0.6,0.1,0.6,0.5c0,1.5,0,2.9,0,4.4c0,1.1-0.6,1.7-1.7,1.7
		c-2.4,0-4.8,0-7.2,0c-1.1,0-1.9-0.7-1.8-2.1c0-0.3,0.2-0.2,0.4-0.2c1.1,0,2.3,0,3.4,0c1,0,1.5-0.9,1.1-1.7
		c-0.3-0.5-0.7-0.6-1.2-0.6c-1.1,0-2.1,0-3.2,0c-0.3,0-0.5,0-0.5-0.4c0-1.5,0-1.5,1.5-1.5C26.9,51,28.2,51,29.5,51z"/>
	<path class="st5" d="M2.3,52.1c0-1.2,0-2.5,0-3.7c0-0.9,0.5-1.3,1.5-1.4c2.1,0,4.2,0,6.3,0c1.2,0,2.5,0,3.7,0
		c1.1,0,1.6,0.5,1.6,1.6c0,0.5,0,1.1,0,1.6c0,0.1,0,0.1,0,0.3c-0.5-0.5-0.9-0.9-1.3-1.3c-0.9-0.9-1.4-0.9-2.3,0
		c-0.9,0.9-1.8,1.8-2.7,2.7c-0.4,0.4-0.6,0.3-0.9,0c-0.6-0.7-1.3-1.3-1.9-1.9c-0.7-0.7-1.3-0.7-1.9,0c-0.7,0.7-1.3,1.4-2,2
		C2.4,52.1,2.4,52.1,2.3,52.1z"/>
	<path class="st3" d="M10.6,57.6c-2.4,0-4.7,0-7,0c-0.5,0-1-0.3-1.2-0.8c-0.2-0.6-0.3-1.1,0.3-1.7c0.8-0.8,1.6-1.6,2.4-2.4
		c0.2-0.2,0.3-0.3,0.5,0C7.3,54.3,8.9,55.9,10.6,57.6z"/>
	<path class="st6" d="M15.5,55.3c0,0.4,0,0.7,0,1.1c0,0.7-0.4,1.1-1.1,1.2c-0.3,0.1-0.5,0-0.8-0.2c-0.9-1-1.9-1.9-2.9-2.9
		c-0.3-0.3-0.3-0.4,0-0.7c0.7-0.6,1.4-1.3,2-2c0.2-0.2,0.3-0.2,0.6,0c0.6,0.6,1.3,1.3,1.9,1.9c0.2,0.2,0.2,0.3,0.2,0.6
		C15.5,54.6,15.5,54.9,15.5,55.3C15.5,55.3,15.5,55.3,15.5,55.3z"/>
	<path d="M12.2,12.2c0,0.6-0.3,1-0.8,1.2c-0.5,0.2-1.2,0-1.3-0.5c-0.3-0.9-0.8-0.9-1.6-0.8c-0.2,0-0.4,0-0.6,0
		c-0.7-0.1-1.3,0-1.6,0.8c-0.2,0.6-0.9,0.7-1.4,0.5c-0.6-0.3-0.8-0.9-0.6-1.5c0.6-1.6,1.3-3.1,1.9-4.6C6.5,6.5,6.8,5.9,7,5.2
		c0.2-0.5,0.6-0.9,1.1-0.9c0.6,0,1,0.3,1.2,0.9c0.9,2.1,1.8,4.2,2.7,6.3C12.1,11.8,12.2,12,12.2,12.2z"/>
	<path d="M47.9,8.1c0-1,0-2,0-2.9c0-1.1,0.9-1.7,1.9-1.1c1.7,1,3.5,2,5.2,3c1,0.6,1,1.6,0,2.2c-1.7,1-3.4,2-5.2,3
		c-1,0.6-1.9,0.1-1.9-1.1C47.9,10.2,47.9,9.2,47.9,8.1z"/>
	<path d="M29.3,31.3c0,1.7,0,3.4,0,5.1c0,2.3-2.1,3.9-4.2,3.4c-0.8-0.2-1.5-0.6-1.9-1.3c-0.1-0.2-0.3-0.3-0.6-0.3
		c-2-0.2-3.4-2-3.2-4.1c0-0.3,0-0.5-0.2-0.7c-0.9-0.6-1.2-1.4-1.3-2.4c0-1,0-1.9,0-2.9c0.1-1.5,1.1-2.6,2.6-2.9
		c0.3,0,0.4-0.2,0.5-0.5c0.6-1.8,2.3-3,4.1-2.9c2,0.1,3.6,1.3,4.1,3.2c0.1,0.5,0.2,0.9,0.2,1.4C29.3,28,29.3,29.6,29.3,31.3z"/>
	<path d="M30.7,31.2c0-1.7,0-3.4,0-5c0.1-3.3,3.3-5.4,6.2-3.9c1,0.5,1.8,1.3,2.1,2.4c0.1,0.3,0.2,0.4,0.5,0.5
		c1.3,0.2,2.4,1.1,2.5,2.5c0.1,1.2,0.1,2.5,0,3.7c-0.1,0.8-0.5,1.5-1.2,1.9c-0.2,0.2-0.3,0.4-0.3,0.6c0.2,2.1-1.2,3.8-3.3,4.1
		c-0.2,0-0.4,0.1-0.5,0.3c-1,1.3-2.4,1.8-3.9,1.3c-1.4-0.5-2.3-1.7-2.3-3.4C30.7,34.6,30.7,32.9,30.7,31.2z"/>
	<path class="st0" d="M30.8,54.1c0-0.6,0.6-1.1,1.2-1.1c0.6,0,1.1,0.6,1.1,1.2c0,0.6-0.6,1.2-1.2,1.1C31.3,55.3,30.8,54.7,30.8,54.1
		z"/>
	<path class="st7" d="M8.7,9.6c-0.3,0-0.6,0-0.9,0C7.9,9.3,8,9,8.2,8.6C8.4,8.9,8.5,9.3,8.7,9.6z"/>
	<path class="st8" d="M52.2,8.2c-0.7,0.4-1.3,0.7-1.9,1.1c0-0.7,0-1.4,0-2.2C50.9,7.5,51.5,7.8,52.2,8.2z"/>
	<path class="st9" d="M25.3,37.3c0.2-0.1,0.4-0.2,0.5-0.4c0.5-0.5,0.5-1.2,0-1.6c-0.4-0.4-1.1-0.5-1.6-0.1c-0.4,0.3-0.8,0.6-1.4,0.6
		c-0.8-0.1-1.3-0.8-1.2-1.6c0-0.3,0.1-0.5,0.4-0.6c0.3-0.1,0.6-0.4,0.8-0.6c0.4-0.4,0.4-1.1,0.1-1.5c-0.4-0.5-1-0.5-1.5-0.2
		c-0.3,0.2-0.6,0.4-1,0.2c-0.4-0.2-0.3-0.6-0.3-0.9c0-0.7,0-1.4,0-2.2c0-0.4,0.1-0.8,0.6-0.9c0.5,0,0.6,0.3,0.7,0.7
		c0.2,0.8,0.7,1.1,1.3,1c0.5-0.1,0.9-0.5,1-1c0.1-0.6-0.1-1.2-0.5-1.8C23,26.2,23,26,23.1,25.7c0.2-0.9,1.1-1.6,2-1.5
		c1,0.1,1.8,0.9,1.8,1.9c0,1.3,0,2.7,0,4c0,2,0,4.1,0,6.1C26.9,37.2,26.2,37.7,25.3,37.3z"/>
	<path class="st9" d="M34.7,37.3c-0.7,0.4-1.3,0.2-1.6-0.4c-0.1-0.2-0.1-0.5-0.1-0.7c0-3.3,0-6.6,0-9.9c0-1.5,1.3-2.4,2.6-2
		c0.6,0.2,1.1,0.7,1.3,1.3c0.1,0.3,0.1,0.6-0.1,0.9c-0.4,0.5-0.5,1.1-0.5,1.7c0.1,0.6,0.5,1,1.1,1c0.5,0,1-0.3,1.2-0.9
		c0-0.2,0.1-0.3,0.1-0.5c0.1-0.3,0.3-0.4,0.6-0.4c0.3,0,0.5,0.2,0.5,0.5c0,1,0,2,0,3c0,0.4-0.5,0.6-0.9,0.4
		c-0.2-0.1-0.3-0.2-0.4-0.3c-0.5-0.3-1-0.2-1.4,0.2c-0.4,0.4-0.4,1-0.1,1.4c0.2,0.3,0.4,0.5,0.7,0.7c0.6,0.2,0.8,0.6,0.6,1.2
		c-0.1,0.6-0.6,1-1.1,1.1c-0.5,0.1-0.9-0.1-1.3-0.4c-0.4-0.4-0.8-0.5-1.3-0.3c-0.8,0.3-1,1.2-0.5,1.8C34.3,37,34.5,37.1,34.7,37.3z"
		/>
</g>
</svg>
