<?xml version="1.0" encoding="utf-8"?>
<!-- Generator: Adobe Illustrator 25.2.1, SVG Export Plug-In . SVG Version: 6.00 Build 0)  -->
<svg version="1.1" id="Camada_1" xmlns="http://www.w3.org/2000/svg" xmlns:xlink="http://www.w3.org/1999/xlink" x="0px" y="0px"
	 viewBox="0 0 60 60" style="enable-background:new 0 0 60 60;" xml:space="preserve">
<style type="text/css">
	.st0{fill:#717171;}
	.st1{fill:#010101;}
	.st2{fill:#FEB854;}
	.st3{fill:#FDD99A;}
	.st4{fill:#4DB9F5;}
	.st5{fill:#ACE4FE;}
</style>
<g>
	<path d="M10.9,0c0.8,0.2,1.5,0.3,2.3,0.6c4.2,1.5,6.9,5.8,6.5,10.1c-0.5,4.7-3.9,8.2-8.5,8.9c-5.3,0.7-10.2-3-11-8.2
		c0-0.1,0-0.3-0.1-0.4c0-0.8,0-1.6,0-2.3c0.1-1,0.3-2.1,0.8-3C2.2,2.8,4.3,1,7.3,0.2c0.5-0.1,1-0.1,1.4-0.2C9.5,0,10.2,0,10.9,0z"/>
	<path d="M51.2,0c0.8,0.2,1.5,0.3,2.3,0.6c4.2,1.5,6.9,5.8,6.5,10.1c-0.5,4.7-3.9,8.2-8.5,8.9c-5.3,0.7-10.3-3-11-8.2
		c-0.8-5.6,3-10.6,8.4-11.3c0.1,0,0.2,0,0.2-0.1C49.8,0,50.5,0,51.2,0z"/>
	<path class="st0" d="M0.1,50.8c0,0-0.1,0-0.1,0c0-0.2,0-0.4,0-0.6c0,0,0.1,0,0.1,0C0.3,50.3,0.3,50.5,0.1,50.8z"/>
	<path d="M0.1,50.8c0-0.2,0-0.4,0-0.6c0.1-0.4,0.3-0.6,0.6-0.9c3.2-3.2,6.3-6.3,9.5-9.5c0.4-0.4,0.3-0.6,0-0.9
		c-1-0.9-1.9-1.9-2.9-2.9c-0.9-0.9-0.6-1.9,0.6-2.2c7.6-2,15.2-4.1,22.8-6.1c1.2-0.3,2,0.4,1.6,1.6c-2,7.6-4.1,15.2-6.1,22.8
		c-0.3,1.3-1.3,1.5-2.3,0.6c-1-1-1.9-1.9-2.9-2.9c-0.3-0.3-0.5-0.3-0.8,0c-3.1,3.2-6.3,6.3-9.5,9.5c-0.9,0.9-1.4,0.9-2.4,0
		c-2.6-2.6-5.1-5.1-7.7-7.7C0.4,51.3,0.2,51.1,0.1,50.8z"/>
	<path d="M50.2,60c-5.4,0-9.8-4.4-9.9-9.8c0-5.4,4.4-9.9,9.8-9.9c5.4,0,9.8,4.4,9.8,9.8C60,55.5,55.6,60,50.2,60z"/>
	<path d="M40.6,18.1c0.6,0,0.9,0.2,1.2,0.6c0.2,0.4,0.2,0.8-0.1,1.2c-0.1,0.1-0.2,0.3-0.3,0.4c-1.5,1.5-3.1,3.1-4.6,4.6
		c-0.6,0.6-1.3,0.6-1.8,0.1c-0.5-0.5-0.4-1.2,0.2-1.8c1.5-1.5,3.1-3.1,4.6-4.6C40,18.3,40.3,18.1,40.6,18.1z"/>
	<path d="M30.7,24.1c0,0.5-0.2,0.8-0.6,1.1c-0.4,0.2-0.8,0.2-1.2,0c-0.1-0.1-0.3-0.2-0.4-0.3c-1.5-1.5-3.1-3.1-4.6-4.6
		c-0.6-0.6-0.6-1.3-0.1-1.8c0.5-0.5,1.2-0.4,1.8,0.2c1.5,1.5,3.1,3.1,4.6,4.6C30.5,23.5,30.7,23.8,30.7,24.1z"/>
	<path d="M35.9,29.3c0.3,0,0.6,0.2,0.8,0.4c1.3,1.3,2.6,2.6,3.9,3.9c0.5,0.6,0.6,1.2,0.1,1.7c-0.5,0.5-1.2,0.5-1.8-0.1
		c-1.3-1.3-2.6-2.6-3.9-3.9c-0.4-0.4-0.5-0.9-0.3-1.4C35,29.5,35.3,29.3,35.9,29.3z"/>
	<path d="M31.5,17c0-0.4,0-0.7,0-1.1c0-0.7,0.5-1.1,1.1-1.1c0.6,0,1.1,0.4,1.2,1.1c0.1,0.8,0,1.6,0,2.3c0,0.6-0.6,1.1-1.2,1.1
		c-0.6,0-1.1-0.5-1.2-1.2C31.5,17.8,31.5,17.4,31.5,17C31.5,17,31.5,17,31.5,17z"/>
	<path d="M43,28.5c-0.4,0-0.7,0-1.1,0c-0.7,0-1.2-0.5-1.2-1.1c0-0.6,0.5-1.1,1.2-1.2c0.7,0,1.5,0,2.2,0c0.7,0,1.2,0.6,1.1,1.2
		c0,0.6-0.5,1.1-1.2,1.1C43.7,28.5,43.3,28.5,43,28.5z"/>
	<path class="st1" d="M43.4,39.2c-0.6,0-1.2-0.5-1.2-1.1c0-0.6,0.6-1.2,1.2-1.2c0.6,0,1.1,0.6,1.1,1.2C44.5,38.7,44,39.2,43.4,39.2z
		"/>
	<path class="st2" d="M17.3,9.8c0,4.1-3.4,7.5-7.5,7.5c-4.1,0-7.5-3.4-7.5-7.5c0-4.1,3.4-7.5,7.5-7.5C14,2.4,17.3,5.7,17.3,9.8z"/>
	<path class="st3" d="M57.7,9.9c0,4.1-3.4,7.5-7.5,7.5c-4.1,0-7.5-3.4-7.5-7.5c0-4.1,3.4-7.5,7.5-7.4C54.3,2.4,57.7,5.7,57.7,9.9z"
		/>
	<path class="st4" d="M24.4,49.7C19.7,45,15,40.3,10.3,35.6c1.3-0.3,2.6-0.7,3.9-1.1c4.9-1.3,9.9-2.6,14.8-4
		c0.4-0.1,0.5-0.2,0.4,0.4C27.8,37.1,26.1,43.4,24.4,49.7C24.4,49.6,24.4,49.6,24.4,49.7z"/>
	<path class="st5" d="M9.9,50.5c-0.5,0-0.8,0.2-1.1,0.5c-0.8,0.8-1.6,1.6-2.4,2.4c-0.2,0.2-0.3,0.3-0.6,0c-0.9-0.9-1.8-1.8-2.7-2.7
		c-0.3-0.2-0.2-0.4,0-0.6c2.9-2.9,5.9-5.9,8.8-8.8c0.2-0.2,0.4-0.2,0.6,0c2,2.1,4.1,4.1,6.2,6.2c0.2,0.2,0.2,0.3,0,0.5
		c-3,2.9-5.9,5.9-8.9,8.9c-0.2,0.2-0.4,0.2-0.6,0c-0.4-0.4-0.8-0.8-1.2-1.2c-0.3-0.2-0.3-0.4,0-0.6c0.8-0.8,1.6-1.6,2.4-2.4
		c0.6-0.6,0.6-1.4,0-1.8C10.3,50.6,10.1,50.5,9.9,50.5z"/>
	<path class="st2" d="M50.2,57.7c-4.1,0-7.5-3.4-7.5-7.5c0-4.1,3.4-7.5,7.5-7.5c4.1,0,7.5,3.4,7.5,7.5
		C57.6,54.3,54.3,57.6,50.2,57.7z"/>
	<path d="M13.6,7.2c0,0.8-0.4,1.3-1.1,1.4c-0.6,0.1-1.2-0.3-1.3-1c-0.1-0.8-0.8-1.4-1.8-1.2c-0.6,0.1-1,0.6-1.1,1.1
		c0,0.5,0.4,1,1,1.1c0.4,0.1,0.9,0.1,1.3,0.2c1.6,0.4,2.7,1.6,2.8,3.1c0.1,1.4-0.7,2.8-2.2,3.4c-0.2,0.1-0.3,0.2-0.4,0.4
		c-0.2,0.5-0.6,0.8-1.1,0.8c-0.5,0-0.9-0.3-1.1-0.8c-0.1-0.3-0.3-0.4-0.5-0.5c-1.3-0.6-2-1.6-2.2-3C6,11.5,6.7,10.8,7.5,11
		c0.6,0.1,0.9,0.5,0.9,1.1c0.1,0.9,0.9,1.4,1.9,1.1c0.5-0.1,0.9-0.7,0.9-1.1c0-0.5-0.5-0.9-1-1.1c-0.5-0.1-1-0.1-1.5-0.2
		c-1.5-0.4-2.5-1.7-2.6-3.1C6,6.3,6.8,4.9,8.2,4.3c0.3-0.1,0.5-0.3,0.6-0.6C8.9,3.2,9.3,3,9.9,3c0.5,0,0.9,0.2,1,0.7
		c0.1,0.3,0.3,0.5,0.6,0.6C12.8,4.9,13.5,5.9,13.6,7.2z"/>
	<path d="M53.9,7.3c0,0.7-0.4,1.2-1,1.3c-0.6,0.1-1.2-0.3-1.3-1c-0.1-0.9-0.9-1.4-1.8-1.2c-0.6,0.1-1,0.6-1,1.1c0,0.5,0.4,1,1,1.1
		c0.5,0.1,1,0.1,1.5,0.3c1.5,0.4,2.5,1.7,2.6,3.2c0.1,1.4-0.8,2.8-2.2,3.4c-0.3,0.1-0.4,0.2-0.5,0.5c-0.2,0.5-0.6,0.7-1.1,0.7
		c-0.5,0-0.9-0.2-1.1-0.8c-0.1-0.3-0.2-0.4-0.5-0.5c-1.3-0.6-2.1-1.6-2.2-3c-0.1-0.7,0.4-1.2,1-1.3c0.7-0.1,1.1,0.3,1.3,1
		c0,0.1,0,0.2,0,0.3c0.1,0.6,0.5,0.9,1.1,1c0.6,0.1,1.1-0.1,1.5-0.6c0.4-0.6-0.1-1.5-0.9-1.6c-0.5-0.1-1-0.1-1.4-0.2
		c-1.5-0.4-2.5-1.7-2.6-3.2c-0.1-1.4,0.8-2.7,2.2-3.3C48.8,4.2,49,4,49.1,3.7C49.2,3.2,49.7,3,50.2,3c0.5,0,0.9,0.3,1.1,0.8
		c0.1,0.3,0.3,0.4,0.5,0.5C53,4.9,53.9,6.1,53.9,7.3z"/>
	<path class="st1" d="M12.7,47.6c0.6,0,1.1,0.6,1.1,1.2c0,0.6-0.6,1.2-1.2,1.1c-0.6,0-1.2-0.6-1.1-1.2
		C11.5,48.1,12.1,47.6,12.7,47.6z"/>
	<path d="M53.9,47.7c0,0.7-0.4,1.2-1.1,1.2c-0.6,0.1-1.2-0.3-1.2-1c-0.1-0.9-0.9-1.4-1.7-1.2c-0.6,0.1-1.1,0.6-1.1,1.1
		c0,0.5,0.4,1,1,1.1c0.5,0.1,1,0.1,1.4,0.2c1.5,0.4,2.6,1.7,2.7,3.2c0.1,1.4-0.8,2.7-2.2,3.3c-0.2,0.1-0.4,0.2-0.5,0.5
		c-0.2,0.5-0.6,0.8-1.1,0.8c-0.5,0-0.9-0.3-1-0.8c-0.1-0.3-0.3-0.4-0.5-0.5c-1.3-0.6-2-1.6-2.1-3c-0.1-0.9,0.6-1.5,1.4-1.3
		c0.6,0.1,0.8,0.5,0.9,1.1c0.2,0.9,1,1.4,1.9,1.1c0.5-0.2,0.9-0.7,0.9-1.1c0-0.5-0.5-0.9-1-1c-0.5-0.1-1-0.1-1.5-0.2
		c-1.5-0.4-2.5-1.7-2.6-3.1c-0.1-1.4,0.7-2.7,2.1-3.3c0.3-0.1,0.5-0.3,0.6-0.6c0.2-0.5,0.6-0.7,1.1-0.7c0.5,0,0.9,0.2,1,0.7
		c0.1,0.4,0.3,0.5,0.6,0.6C53.1,45.2,53.9,46.5,53.9,47.7z"/>
</g>
</svg>
