<?xml version="1.0" encoding="utf-8"?>
<!-- Generator: Adobe Illustrator 25.2.1, SVG Export Plug-In . SVG Version: 6.00 Build 0)  -->
<svg version="1.1" id="Camada_1" xmlns="http://www.w3.org/2000/svg" xmlns:xlink="http://www.w3.org/1999/xlink" x="0px" y="0px"
	 viewBox="0 0 60 60" style="enable-background:new 0 0 60 60;" xml:space="preserve">
<style type="text/css">
	.st0{fill:#0A0A0A;}
	.st1{fill:#FE5D5D;}
	.st2{fill:#ECF1F9;}
	.st3{fill:#72D7FE;}
	.st4{fill:#9FE457;}
	.st5{fill:#FDFDFD;}
	.st6{fill:#FEFEFE;}
	.st7{fill:#9FE356;}
	.st8{fill:#010101;}
</style>
<g>
	<path d="M0,48.4c0-0.6,0-1.2,0-1.8c0.3-1.9,1.4-3,3.1-3.7c0.3-0.1,0.4-0.3,0.5-0.6c0.6-1.4,1.7-2.3,3.2-2.2c3.6,0.3,7-0.5,10.5-1.5
		c2.4-0.6,4.8-1.2,7.2-1.9c2.3-0.5,4.5-1.2,6.9-1.8c-1.2-0.5-2.2-1.1-3.1-1.8c-2.2-1.8-3.5-4.1-4-6.8c-0.1-0.5-0.3-0.7-0.8-0.6
		c-0.8,0-1.7,0-2.5,0c-0.7,0-0.7,0.1-0.6,0.7c0.2,1.5,0.6,3,1.3,4.4c0.3,0.7,0.7,1.4,1.1,2.1c0.5,0.8,0.4,1.3-0.3,2
		c-0.9,0.4-1.4,0.2-1.9-0.6c-1.6-2.4-2.5-4.9-2.8-7.7c-0.1-0.7-0.1-0.7-0.8-0.7c-0.8,0-1.7,0-2.5,0c-0.6,0-0.6,0-0.6,0.6
		c0.2,2.5,0.8,4.9,1.9,7.2c0.3,0.7,0.7,1.3,1,2c0.5,0.9,0.3,1.5-0.6,2c-0.7,0.2-1.3,0-1.7-0.7c-0.7-1.2-1.4-2.5-1.8-3.8
		c-0.6-1.6-1-3.2-1.3-4.9c0-0.1,0-0.4-0.1-0.4c-0.2-0.1-0.3,0.1-0.4,0.2c-1.6,1.7-1.4,1.4-3.5,1.4c-1.8,0-3.6,0-5.4,0
		c-0.2,0-0.4,0-0.5,0c-0.8,0-1.1-0.3-1.3-1c0-0.2,0-0.5,0-0.7c0.1-0.4,0.4-0.8,0.7-1.1c0.6-0.6,1.2-1.2,1.9-1.9
		c0.3-0.3,0.3-0.5,0-0.7c-0.6-0.6-1.3-1.3-1.9-1.9c-0.3-0.3-0.5-0.6-0.6-1c0-0.2,0-0.5,0-0.7c0.3-0.7,0.6-1,1.4-1c2.3,0,4.7,0,7,0
		c0.6,0,1.2,0.2,1.6,0.7c0.3,0.3,0.6,0.6,0.9,0.9c0.3,0.3,0.4,0.2,0.4-0.2c0.1-1,0.3-2,0.6-3c1-3.4,2.6-6.5,4.9-9.2
		C19,6.1,21.5,4,24.5,2.6c3-1.5,6.1-2.5,9.5-2.5c2.1,0,4.3-0.1,6.3,0.3c6.9,1.5,12.2,5.2,16,11.1c1.9,3,3.2,6.3,3.5,9.9
		c0.6,6.4-0.7,12.4-4.6,17.6c-0.7,0.9-1.3,1.1-2.2,0.6c-0.6-0.7-0.6-1.3-0.1-2c1.9-2.6,3.3-5.5,3.9-8.7c0.9-4.1,0.6-8.2-0.9-12.1
		c-2.2-6-6.4-10.1-12.2-12.6c-2.2-0.9-4.4-1.4-6.8-1.6C33,2.3,29.2,3.1,25.6,5c-4.7,2.4-8.1,6.1-10.2,11.1c-0.9,2-1.4,4.1-1.6,6.3
		c-0.1,0.7,0,0.7,0.6,0.7c0.9,0,1.8,0,2.6,0c0.4,0,0.6-0.2,0.6-0.6c0.4-3.7,1.8-6.9,4.2-9.7c2.9-3.4,6.5-5.4,10.9-6.1
		c4-0.6,7.7,0.1,11.3,1.9c2.7,1.4,4.9,3.5,6.5,6.1c1.4,2.2,2.4,4.7,2.7,7.3c0.6,4.7-0.5,9-3.2,12.9c-0.5,0.7-1.1,1.5-1.8,2.1
		c-0.6,0.6-1.2,0.6-1.9,0.1c-0.5-0.8-0.5-1.4,0.2-2.1c1.1-1.1,2-2.4,2.6-3.8c1.8-3.7,2.1-7.5,0.8-11.4c-1.3-4.1-3.9-7.2-7.8-9
		C37,8.2,31.8,8.5,26.9,11.8c-3.7,2.5-5.8,6.1-6.5,10.5c-0.1,0.7-0.1,0.7,0.6,0.7c0.9,0,1.7,0,2.6,0c0.5,0,0.6-0.2,0.7-0.6
		c0.9-4.5,3.5-7.5,7.9-8.9c5.1-1.7,11,0.8,13.4,5.6c1.4,2.8,1.8,5.8,0.8,8.8c-1.5,4.4-4.6,7-9.2,7.8c-1,0.2-2.1,0.2-3.1,0
		c-0.4-0.1-0.5,0-0.5,0.5c0.1,1.6,0,3.3,0.1,4.9c0,2.1,0,4.3,0,6.4c0,3.7,0,7.4,0,11.1c0,0.9-0.3,1.2-1.1,1.5c-0.2,0-0.5,0-0.7,0
		c-5.8-1.3-11.4-2.9-17.2-4.4c-0.2-0.1-0.6-0.3-0.8-0.1c-0.1,0.2,0.1,0.5,0.2,0.7c0.3,0.7,0.6,1.4,0.8,2.2c0.2,0.9-0.2,1.4-1,1.5
		c-1.8,0-3.5,0-5.3,0c-0.7,0.1-0.9-0.4-1.2-0.9c-0.5-1.3-1-2.6-1.5-3.9c-0.1-0.3-0.3-0.6-0.7-0.8c-0.8-0.4-1.4-1-1.7-1.9
		C3.5,52.3,3.3,52.1,3,52c-1.1-0.4-1.9-1.1-2.5-2.1C0.2,49.5,0.1,49,0,48.4z"/>
	<path class="st0" d="M14,59.9c0,0,0,0.1,0,0.1c-1.9,0-3.7,0-5.6,0c0,0,0-0.1,0-0.1C10.3,59.9,12.2,59.9,14,59.9z"/>
	<path class="st1" d="M53.1,39.5c-0.3,0.3-0.6,0.7-0.9,1c-0.2,0.1-0.3,0-0.4-0.1c-0.9-0.3-1.5,0.3-1.4,1.2c0,0.2,0.1,0.3,0.1,0.5
		c-0.7,0.5-1.5,1.1-2.2,1.6c-0.3-0.1-0.3-0.3-0.4-0.6c-0.6-1.8-1.6-3.3-2.8-4.7c-0.1-0.1-0.3-0.3-0.3-0.5c0.5-0.4,1-0.9,1.7-1.1
		c0.9,0.5,1.3,0.4,2-0.3c3.7-4,5.4-8.8,4.8-14.2c-0.6-5.6-3.4-10-8.2-13.1c-3.5-2.2-7.3-3.1-11.4-2.7c-6,0.7-10.5,3.7-13.6,8.9
		c-1.3,2.2-2,4.6-2.2,7.1c0,0.3-0.1,0.5-0.5,0.5c-1.1,0-2.2,0-3.3,0c-0.3,0-0.4,0-0.4-0.4c0.3-4,1.6-7.7,3.9-11
		c2.6-3.7,5.9-6.3,10.1-7.9c3.3-1.3,6.7-1.7,10.2-1.4C41.5,2.9,45,4.2,48,6.3c3.4,2.4,6,5.4,7.6,9.2c1.7,3.7,2.2,7.6,1.7,11.6
		c-0.5,3.9-1.9,7.4-4.2,10.5C52.6,38.4,52.6,38.8,53.1,39.5z"/>
	<path class="st2" d="M27.1,56.2c-2.4-0.6-4.9-1.2-7.3-1.9c-2.2-0.6-4.4-1.2-6.6-1.7c-0.4-0.1-0.4-0.2-0.4-0.6c0-3.1,0-6.1,0-9.2
		c0-0.3,0.1-0.5,0.4-0.6c4.1-1,8.2-2.1,12.3-3.2c0.4-0.1,0.5,0,0.5,0.4c0,2.8,0,5.5,0,8.3c0,0.9,0.3,1.3,1.2,1.5
		c0.3,0.6,0.2,1.3,0.1,1.9c-0.1,0.3-0.3,0.3-0.5,0.4c-0.8,0.5-0.8,1.3,0,1.8c0.2,0.1,0.4,0.2,0.5,0.4c0.1,0.6,0,1.3,0,2
		C27.3,55.9,27.3,56.1,27.1,56.2z"/>
	<path class="st1" d="M28.9,25.6c0.5,0,1.1,0,1.6,0c0.3,0,0.5,0.1,0.6,0.4c1,2.5,3.6,3.7,6.1,2.8c2.3-0.9,3.5-3.5,2.7-6
		c-0.6-1.8-2.4-3.1-4.3-3.1c-1.9,0-3.7,1.2-4.4,3c-0.2,0.5-0.4,0.6-0.8,0.6c-1.1,0-2.1,0-3.2,0c-0.4,0-0.5-0.1-0.4-0.5
		c0.8-4.2,4.6-7.4,8.9-7.3c4.3,0.1,8,3.4,8.6,7.6c0.8,5.7-3.8,10.5-9.5,10.2C31,33,27.5,29.9,26.8,26c-0.1-0.3,0-0.5,0.4-0.5
		C27.8,25.6,28.4,25.6,28.9,25.6z"/>
	<path class="st1" d="M17.3,38.8c-0.3-0.5-0.6-1-1.1-1.4c0.7-0.6,0.8-1,0.4-1.8c-1.5-2.6-2.5-5.4-2.8-8.4c0-0.3-0.1-0.5-0.1-0.8
		c-0.1-0.8-0.1-0.8,0.8-0.8c0.9,0,1.9,0,2.8,0c0.4,0,0.6,0.1,0.6,0.5c0.2,2.9,1.2,5.5,2.7,7.9c0.5,0.8,0.9,1,1.9,0.6
		c0.1,0,0.2,0,0.3,0.1c0.5,0.6,1.1,1.1,1.6,1.7c0.1,0.1,0.2,0.2,0.2,0.4C22.2,37.5,19.8,38.2,17.3,38.8z"/>
	<path class="st3" d="M27.1,56.2c0-0.9,0-1.7,0-2.6c0.1-0.2,0.2-0.2,0.4-0.3c0.8-0.5,0.8-1.3,0-1.8c-0.1-0.1-0.3-0.1-0.4-0.3
		c0-0.7,0-1.4,0-2.1c0.9-0.2,1.2-0.5,1.2-1.5c0-3,0-5.9,0-8.9c0-0.4,0.1-0.6,0.5-0.7c0.8-0.2,1.5-0.4,2.3-0.6c0,6.6,0,13.1,0,19.6
		C29.8,57,28.4,56.6,27.1,56.2z"/>
	<path class="st1" d="M33.5,40.9c2.8,0.3,5.6,0,8.3-1.1c0.4-0.2,0.9-0.2,1.1-0.7c0.1-0.2,0.1,0,0.1,0c0.2,0.6,0.7,1,1.1,1.5
		c0.9,1.2,1.6,2.5,2,3.9c0,0.2,0.2,0.4,0,0.5c-0.6,0.2-1.1,0.5-1.7,0.7c-0.3-0.1-0.3-0.4-0.3-0.7c-0.4-1.4-1.1-2.7-2.2-3.8
		c-0.5-0.5-1.1-0.5-1.5-0.1c-0.4,0.4-0.4,0.9,0,1.5c0.8,0.9,1.3,1.8,1.6,2.9c0.1,0.3,0.3,0.6,0,0.9c-0.7,0.2-1.4,0.4-2,0.5
		c-0.2-0.2-0.2-0.5-0.3-0.7c-0.2-0.7-0.5-1.4-1.1-1.9c-0.5-0.4-0.9-0.4-1.3-0.1c-0.4,0.4-0.5,0.8-0.2,1.3c0.1,0.3,0.4,0.5,0.5,0.7
		c0.1,0.3,0.4,0.7,0.1,1c-1.4,0.1-2.8,0.2-4.2,0C33.5,45.3,33.5,43.1,33.5,40.9z"/>
	<path class="st3" d="M10.4,47.5c0,1.4,0,2.9,0,4.3c0,0.4-0.1,0.5-0.5,0.5c-1,0-2.1,0-3.1,0c-0.7,0-1-0.3-1-1c0-2.5,0-5.1,0-7.6
		c0-0.7,0.3-1,1-1c1,0,2.1,0,3.1,0c0.4,0,0.5,0.1,0.5,0.5C10.4,44.6,10.4,46,10.4,47.5z"/>
	<path class="st4" d="M4.1,26.7c0.5-0.4,0.9-0.9,1.4-1.3c0.7-0.7,0.7-1.3,0-2C5,23,4.5,22.5,4.1,21.9c0.6,0,1.1,0,1.7,0
		c0.8,0,1.8-0.2,2.5,0.1c0.7,0.3,1.2,1.1,1.8,1.7c0.7,0.7,0.7,0.7,0,1.4c-0.6,0.6-1.1,1.4-1.8,1.7c-0.7,0.3-1.6,0.1-2.4,0.1
		c-0.6,0-1.1,0-1.7,0C4.1,26.8,4.1,26.8,4.1,26.7z"/>
	<path class="st5" d="M33.6,23.2c0.4-1,1.8-1.3,2.6-1.1c1,0.3,1.7,1.2,1.7,2.3c0,1.1-0.7,2-1.8,2.2c-0.7,0.2-2.1-0.1-2.5-1.1
		c0.6,0,1.2,0,1.8,0c0.8,0,1.3-0.5,1.3-1.1c0-0.7-0.5-1.2-1.3-1.2c-0.3,0-0.6,0-0.9,0C34.3,23.2,34,23.2,33.6,23.2z"/>
	<path class="st6" d="M12,57.6c-0.8,0-1.6,0.2-2.3,0c-0.6-0.3-0.6-1.2-0.9-1.9c-0.2-0.3-0.3-0.7-0.4-1.1c0.8,0,1.5,0,2.2,0
		c0.2,0,0.3,0.1,0.3,0.3C11.2,55.8,11.6,56.7,12,57.6z"/>
	<path class="st7" d="M3.5,49.5c-0.8-0.5-1.1-1.2-1.1-2c0-0.8,0.4-1.5,1.1-2C3.5,46.9,3.5,48.1,3.5,49.5z"/>
	<path d="M46.1,45.1c-0.4-1.9-1.3-3.5-2.6-4.9c-0.3-0.3-0.5-0.6-0.6-1c0.1-1.2,0.9-1.6,2-1c1.6,1.6,2.7,3.5,3.4,5.7
		c0.3,1.5,0.6,3,0.5,4.5c-0.2,3.3-1.5,6.1-3.8,8.4c-0.5,0.5-1.2,0.5-1.7,0.1c-0.5-0.4-0.5-1.1-0.1-1.6c0.9-1,1.7-2.1,2.3-3.4
		C46.4,49.7,46.6,47.4,46.1,45.1z"/>
	<path d="M42.1,46.6c-0.1-1.4-0.7-2.6-1.6-3.6c-0.1-0.1-0.2-0.2-0.3-0.3c-0.4-0.6-0.4-1.2,0.1-1.6c0.5-0.4,1.1-0.4,1.6,0.1
		c1.1,1.1,1.9,2.5,2.3,4.1c0,0.2,0.1,0.4,0.2,0.6c0.2,1.6,0.2,3.3-0.5,4.8c-0.4,1.1-1.1,2.2-1.9,3c-0.5,0.6-1.2,0.6-1.7,0.2
		c-0.5-0.4-0.6-1.1,0-1.7c0.9-1,1.6-2.2,1.8-3.6C42.2,47.9,42.2,47.3,42.1,46.6z"/>
	<path d="M37.7,47.5c0.1-0.6-0.2-1.1-0.6-1.5c-0.4-0.6-0.4-1.1,0-1.6c0.5-0.5,1.2-0.5,1.8,0c0.7,0.8,1.1,1.7,1.2,2.7
		c0,1.2-0.3,2.3-1.1,3.3c-0.5,0.6-1.2,0.8-1.7,0.3c-0.6-0.4-0.6-1.1-0.1-1.8C37.5,48.5,37.7,48.1,37.7,47.5z"/>
	<path class="st8" d="M50.4,42.2c-0.5-0.9-0.2-1.8,0.7-1.9c0.4-0.1,0.7,0.1,1,0.3c0.3,0.5,0.5,0.9,0.1,1.5c-0.3,0.4-0.7,0.6-1.1,0.5
		C50.9,42.5,50.7,42.3,50.4,42.2z"/>
	<path class="st8" d="M27.1,51.3c0.8,0.2,1.1,0.6,1.2,1.2c0,0.6-0.4,1-1.2,1.2c-0.8-0.2-1.2-0.6-1.2-1.2
		C26,51.9,26.4,51.5,27.1,51.3z"/>
</g>
</svg>
