<?xml version="1.0" encoding="utf-8"?>
<!-- Generator: Adobe Illustrator 25.2.1, SVG Export Plug-In . SVG Version: 6.00 Build 0)  -->
<svg version="1.1" id="Camada_1" xmlns="http://www.w3.org/2000/svg" xmlns:xlink="http://www.w3.org/1999/xlink" x="0px" y="0px"
	 viewBox="0 0 60 60" style="enable-background:new 0 0 60 60;" xml:space="preserve">
<style type="text/css">
	.st0{fill:#B4B4B4;}
	.st1{fill:#9A9A9A;}
	.st2{fill:#808080;}
	.st3{fill:#FEB854;}
	.st4{fill:#FE5D5D;}
	.st5{fill:#FEFEFE;}
	.st6{fill:#010101;}
</style>
<g>
	<path d="M32,0c0.5,0.3,1.1,0.2,1.6,0.3C42.1,2,47.7,7,50.4,15.2c1.6,4.9,1.2,9.8-0.8,14.6c-0.7,1.6-1.5,3.1-2.6,4.4
		c-0.3,0.3-0.3,0.6,0,1c3.1,5.3,6.1,10.7,9.2,16c0.2,0.3,0.4,0.6,0.3,1c0,0.7-0.6,1.2-1.3,1.1c-1.4-0.1-2.7-0.3-4.1-0.5
		c-1-0.1-2-0.3-3-0.4c-0.4-0.1-0.5,0-0.7,0.4c-0.9,2.1-1.7,4.2-2.6,6.4c-0.2,0.4-0.4,0.7-0.8,0.9c-0.6,0.2-1.1,0-1.5-0.7
		c-1.5-2.7-3.1-5.3-4.6-8c-1.6-2.7-3.2-5.5-4.8-8.3c-0.2-0.3-0.4-0.5-0.8-0.4c-1.6,0.2-3.1,0.2-4.7,0c-0.4-0.1-0.6,0.1-0.8,0.4
		c-3.1,5.4-6.2,10.8-9.3,16.1c-0.2,0.3-0.4,0.7-0.8,0.8c-0.7,0.2-1.2,0-1.6-0.8c-0.9-2.1-1.7-4.2-2.6-6.3c-0.2-0.6-0.5-0.6-1-0.5
		c-2.2,0.3-4.3,0.6-6.5,0.9c-0.6,0.1-1.1,0.1-1.5-0.5c-0.3-0.5-0.1-1,0.1-1.5c2.7-4.6,5.3-9.2,8-13.8c0.4-0.8,0.9-1.5,1.3-2.3
		c0.2-0.3,0.2-0.5,0-0.9c-1.6-2.1-2.8-4.4-3.5-6.9c-0.9-3.1-1.1-6.2-0.6-9.3c0.7-4.5,2.7-8.4,5.9-11.7C18.2,3,22.3,0.9,27,0.2
		c0.3,0,0.6,0,0.9-0.2c0.1,0,0.2,0,0.4,0c0.1,0.1,0.2,0.1,0.3,0.1c0.1,0,0.1,0,0.2,0c0.1,0,0.2,0,0.3-0.1c0.7,0,1.4,0,2.1,0
		c0.1,0.1,0.2,0.1,0.3,0.1c0.1,0,0.1,0,0.2,0c0.1,0,0.2,0,0.3-0.1C31.8,0,31.9,0,32,0z"/>
	<path class="st0" d="M28.5,0.1c-0.1,0-0.2,0.1-0.2-0.1C28.3,0,28.4,0,28.5,0.1C28.5,0,28.5,0,28.5,0.1C28.5,0.1,28.5,0.1,28.5,0.1z
		"/>
	<path class="st1" d="M28.5,0.1C28.5,0.1,28.5,0,28.5,0.1C28.6,0,28.6,0,28.7,0c0,0,0.1,0,0,0.1c0,0,0,0,0,0
		C28.6,0.1,28.5,0.1,28.5,0.1z"/>
	<path class="st2" d="M28.7,0.1C28.7,0.1,28.7,0,28.7,0.1C28.8,0,28.9,0,28.9,0C28.9,0.1,28.8,0.1,28.7,0.1z"/>
	<path class="st2" d="M31.3,0.1c-0.1,0-0.2,0-0.2-0.1C31.1,0,31.2,0,31.3,0.1C31.3,0,31.3,0,31.3,0.1C31.3,0.1,31.3,0.1,31.3,0.1z"
		/>
	<path class="st1" d="M31.3,0.1C31.3,0.1,31.3,0,31.3,0.1C31.4,0,31.4,0,31.5,0c0,0,0,0,0,0.1c0,0,0,0,0,0
		C31.4,0.1,31.4,0.1,31.3,0.1z"/>
	<path class="st0" d="M31.5,0.1C31.5,0.1,31.5,0,31.5,0.1C31.6,0,31.7,0,31.8,0C31.7,0.2,31.6,0.1,31.5,0.1z"/>
	<path class="st3" d="M49,21.3c0,10.4-8.6,19-19,19c-10.5,0-19-8.6-18.9-19c0-10.4,8.6-19,19-19C40.5,2.4,49,10.9,49,21.3z"/>
	<path class="st4" d="M24.7,42c-2.7,4.7-5.4,9.4-8.2,14.2c-0.7-1.7-1.4-3.3-2-4.9c-0.1-0.2,0-0.4,0.1-0.5c0.5-0.9,1.1-1.8,1.6-2.7
		c0.4-0.6,0.3-1.1-0.2-1.5c-0.4-0.4-1-0.4-1.4-0.1c-0.2,0.2-0.4,0.4-0.5,0.6c-0.5,0.8-1,1.7-1.5,2.5c-0.1,0.2-0.2,0.4-0.5,0.4
		c-1.7,0.2-3.5,0.5-5.3,0.7c0.8-1.3,1.5-2.6,2.2-3.8c1.9-3.3,3.8-6.6,5.7-9.8c0.2-0.3,0.3-0.5,0.6-0.1c2.6,2.5,5.6,4.2,9.1,5.1
		C24.5,41.9,24.6,42,24.7,42z"/>
	<path class="st4" d="M43.4,56.2c-2.8-4.8-5.5-9.5-8.2-14.2c1.5-0.4,2.9-0.9,4.2-1.6c1.9-1,3.7-2.2,5.2-3.6c0.3-0.3,0.4-0.3,0.6,0.1
		c2.6,4.5,5.2,9,7.7,13.5c0,0,0,0.1,0.1,0.2c-1.5-0.2-3-0.5-4.5-0.6c-0.8-0.1-1.3-0.4-1.6-1.1c-0.4-0.8-0.9-1.5-1.3-2.2
		c-0.3-0.4-0.7-0.6-1.2-0.5c-0.5,0.1-0.8,0.4-0.9,0.9c-0.1,0.4,0.1,0.7,0.3,1c0.5,0.8,1,1.7,1.6,2.5c0.1,0.2,0.2,0.3,0.1,0.6
		C44.8,52.9,44.1,54.5,43.4,56.2z"/>
	<path class="st5" d="M42.1,28.4c-0.3,0.7-0.8,1.2-1.2,1.8c-0.2,0.1-0.3,0-0.5,0c-1-0.2-1.5,0.4-1.3,1.3c0,0.1,0.1,0.3,0,0.4
		c-0.4,0.5-0.9,0.7-1.4,1.1c0,0,0,0-0.1,0c-0.9-0.7-1.7-0.2-2.4,0.1c-1.7,0.8-3.5,1.2-5.4,1.2c-3,0-5.7-1-8.1-2.9
		c-2.7-2.2-4.3-5-4.8-8.4c-0.3-2.2,0-4.3,0.7-6.3c0.3-0.8,0.5-1.5-0.1-2.2c0.3-0.7,0.8-1.2,1.1-1.8c0.2-0.1,0.4,0,0.6,0.1
		c0.9,0.1,1.4-0.5,1.2-1.3c0-0.1-0.1-0.3-0.1-0.4c0.4-0.5,1-0.9,1.5-1.3c0.1,0,0.2,0,0.3,0.1c0.5,0.3,0.9,0.3,1.4,0
		c1.1-0.5,2.3-1,3.6-1.3c4-0.8,7.6,0.1,10.7,2.6c2.7,2.2,4.3,5,4.8,8.5c0.3,2.3,0,4.6-0.9,6.7C41.7,27.1,41.7,27.8,42.1,28.4z"/>
	<path d="M42.1,28.4c-0.6-0.6-0.7-0.9-0.3-1.8c1-2.2,1.3-4.5,1-6.9c-0.8-6.8-7-11.8-13.8-11.2c-1.8,0.2-3.5,0.7-5.1,1.5
		c-0.8,0.4-1.2,0.3-1.8-0.3c-0.3-0.9-0.1-1.4,0.7-1.8c8.4-4.5,18.9-0.2,21.7,8.9c1.1,3.7,0.9,7.3-0.7,10.9
		C43.5,28.5,42.9,28.7,42.1,28.4z"/>
	<path d="M17.8,14.5c0.7,0.6,0.8,0.9,0.4,1.9c-1,2.3-1.3,4.7-0.8,7.2c0.8,4.2,3.1,7.3,6.8,9.2c3.8,2,7.7,1.9,11.6,0.1
		c1.1-0.5,1.4-0.5,2.1,0.2c0.2,1,0.1,1.3-0.9,1.8c-8.4,4.3-18.6,0-21.5-9c-1.1-3.6-0.9-7.2,0.6-10.7C16.4,14.4,16.9,14.2,17.8,14.5z
		"/>
	<path class="st6" d="M39.2,31.9c-0.4-0.7-0.3-1.2,0.1-1.6c0.4-0.4,0.9-0.5,1.6-0.1c0.3,0.4,0.5,0.8,0.3,1.3
		C40.8,32.4,40,32.5,39.2,31.9z"/>
	<path class="st6" d="M20.6,11c0.4,0.7,0.4,1.2,0,1.6c-0.4,0.4-0.9,0.5-1.6,0.1c-0.6-0.9-0.4-1.8,0.6-2C19.9,10.5,20.3,10.7,20.6,11
		z"/>
	<path d="M23.7,28.7c0.2-1.5,0.5-3.1,0.8-4.6c0.1-0.3,0-0.5-0.2-0.7c-1.1-1-2.1-2-3.2-3.1c-0.4-0.4-0.7-0.9-0.5-1.4
		c0.2-0.6,0.7-0.8,1.2-0.8c1.5-0.2,2.9-0.4,4.4-0.6c0.3,0,0.5-0.2,0.6-0.4c0.6-1.3,1.3-2.7,2-4c0.2-0.5,0.6-0.9,1.2-0.9
		c0.6,0,0.9,0.4,1.2,0.9c0.6,1.3,1.3,2.6,2,4c0.1,0.3,0.3,0.4,0.6,0.5c1.5,0.2,3,0.4,4.5,0.7c0.5,0.1,0.9,0.3,1.1,0.8
		c0.2,0.5,0,1-0.4,1.4c-1.1,1-2.1,2.1-3.2,3.1c-0.2,0.2-0.3,0.4-0.3,0.8c0.3,1.4,0.5,2.8,0.7,4.3c0.1,0.6,0.1,1.1-0.4,1.5
		c-0.5,0.4-1.1,0.2-1.6-0.1c-1.3-0.7-2.6-1.3-3.8-2c-0.3-0.2-0.5-0.2-0.8,0c-1.4,0.7-2.7,1.5-4.1,2.1C24.6,30.4,23.7,29.8,23.7,28.7
		z"/>
	<path class="st3" d="M33.5,26.8c-1-0.5-1.9-1-2.8-1.5c-0.5-0.3-1-0.3-1.5,0c-0.9,0.5-1.8,0.9-2.8,1.5c0.1-0.9,0.2-1.7,0.4-2.5
		c0.3-1.1,0.1-1.8-0.8-2.5c-0.6-0.5-1.1-1.2-1.7-1.7c0.6-0.2,1.4-0.2,2.1-0.3c0,0,0.1,0,0.1,0c1.1,0,1.9-0.5,2.3-1.6
		c0.3-0.7,0.7-1.4,1.1-2.2c0.4,0.9,0.9,1.6,1.2,2.4c0.3,0.8,0.9,1.3,1.8,1.4c0.9,0.1,1.7,0.2,2.6,0.4c-0.6,0.7-1.2,1.4-1.9,2
		c-0.6,0.5-0.8,1.1-0.6,1.9C33.2,24.8,33.4,25.7,33.5,26.8z"/>
</g>
</svg>
