<?xml version="1.0" encoding="utf-8"?>
<!-- Generator: Adobe Illustrator 25.2.1, SVG Export Plug-In . SVG Version: 6.00 Build 0)  -->
<svg version="1.1" id="Camada_1" xmlns="http://www.w3.org/2000/svg" xmlns:xlink="http://www.w3.org/1999/xlink" x="0px" y="0px"
	 viewBox="0 0 60 60" style="enable-background:new 0 0 60 60;" xml:space="preserve">
<style type="text/css">
	.st0{fill:#7C9AFE;}
	.st1{fill:#010101;}
	.st2{fill:#FECCAB;}
	.st3{fill:#FE5D5D;}
	.st4{fill:#72D7FE;}
	.st5{fill:#010000;}
	.st6{fill:#ECF1F9;}
</style>
<g>
	<path d="M11.1,60c-0.7-0.3-0.9-0.8-0.9-1.5c0-6.8,0-13.6,0-20.3c0-1.2,0.4-1.6,1.5-1.6c3.4,0,6.8,0,10.3,0c0.5,0,0.9,0.1,1.2,0.5
		c0.1,0.2,0.2,0.1,0.4,0.1c2.2-1.1,3.9-2.6,4.7-5c0.6-1.8,1.3-3.6,1.9-5.4c0.4-1,0.8-1.3,1.9-1c1.4,0.4,2.6,0.9,3.6,1.9
		c1.4,1.6,1.9,3.4,1.4,5.5c-0.3,1.1-0.7,2.3-1.1,3.4c2.5,0,5,0,7.4,0c1.6,0,2.8,0.7,3.6,2.1c0.5,0.9,0.6,1.9,0.2,2.9
		c-0.1,0.3-0.1,0.5,0.2,0.7c1.4,0.7,2.1,1.8,2.1,3.3c0,1.5-0.7,2.6-1.9,3.4c-0.3,0.2-0.3,0.3-0.2,0.6c0.7,1.9,0,3.7-1.8,4.7
		c-0.2,0.1-0.4,0.2-0.3,0.5c1,2.4-0.7,4.7-2.8,5.1c-0.1,0-0.1,0.1-0.2,0.1c-5.1,0-10.2,0-15.3,0c-1.1-0.1-2.1-0.3-3.1-0.7
		c-0.2-0.1-0.5-0.1-0.6,0.2c-0.2,0.3-0.5,0.5-0.9,0.5C18.8,60,15,60,11.1,60z"/>
	<path d="M26.5,15.7c0.9,0.3,1.2,0.6,1.2,1.5c0,1.1,0.1,2.3-0.2,3.4c-0.6,2.2-2.4,3.6-4.7,3.6c-1.5,0-3.1,0-4.6,0
		c-0.4,0-0.6,0.1-0.8,0.4c-0.8,1.1-1.7,2.2-2.5,3.2c-0.7,0.8-1.4,0.8-2.1,0c-0.9-1.1-1.7-2.2-2.6-3.3c-0.2-0.3-0.4-0.4-0.7-0.4
		c-1.8,0-3.6,0.1-5.3-0.1c-2.1-0.2-3.7-1.7-4.1-3.8c0-0.1-0.1-0.1-0.1-0.2C0,14.8,0,9.5,0,4.1c0.3-1.2,0.8-2.2,1.7-3
		C2.7,0.4,3.7,0,4.8,0c6,0,12,0,18,0c2.8,0,4.8,2.1,4.8,4.9c0,0.8,0,1.6,0,2.3c0,0.9-0.3,1.2-1.2,1.5c-0.7,0.1-1.3-0.4-1.3-1.2
		c-0.1-0.8,0-1.5,0-2.3c0-1.8-0.9-2.7-2.7-2.7c-5.7,0-11.5,0-17.2,0c-1.8,0-2.7,0.9-2.7,2.7c0,4.6,0,9.3,0,13.9
		c0,1.7,0.9,2.6,2.6,2.6c1.6,0,3.2,0,4.8,0c0.9,0,1.5,0.3,2,1c0.5,0.6,1,1.3,1.5,1.9c0.4,0.4,0.4,0.5,0.8,0c0.5-0.6,1-1.3,1.5-1.9
		c0.5-0.7,1.1-1,1.9-1c1.6,0,3.2,0,4.8,0c1.8,0,2.6-0.9,2.7-2.7c0-0.7,0-1.3,0-2c0-0.5,0.2-0.9,0.5-1.2
		C25.9,15.7,26.2,15.5,26.5,15.7z"/>
	<path class="st0" d="M26.5,15.7c-0.9,0.3-1.2,0.6-1.2,1.5c0,0.7,0,1.4,0,2.1c0,1.6-1,2.6-2.6,2.6c-1.8,0-3.5,0-5.3,0
		c-0.7,0-1.1,0.2-1.5,0.7c-0.6,0.8-1.3,1.6-1.9,2.5c-0.2,0.3-0.3,0.3-0.5,0c-0.6-0.8-1.3-1.6-1.9-2.4c-0.4-0.5-0.9-0.8-1.6-0.8
		c-1.7,0-3.4,0-5.2,0c-1.6,0-2.6-1-2.6-2.6c0-4.8,0-9.5,0-14.3c0-1.7,1-2.6,2.7-2.6c5.9,0,11.8,0,17.6,0c1.7,0,2.7,1,2.7,2.6
		c0,0.7,0,1.5,0,2.2c0,0.9,0.3,1.2,1.2,1.5c0,0.9,0,1.8,0,2.7c-0.1,0.2-0.3,0.2-0.4,0.3c-0.8,0.5-0.8,1.3,0,1.8
		c0.1,0.1,0.3,0.1,0.4,0.3C26.5,14.4,26.5,15,26.5,15.7z"/>
	<path d="M46.2,0c2.9,0,5.8,0,8.7,0C58,0,60,2,60,5.2c0,4.7,0,9.4,0,14.1c0,2.4-1.3,4.1-3.5,4.8c-0.5,0.1-1,0.2-1.5,0.2
		c-1.5,0-3,0-4.5,0c-0.4,0-0.6,0.1-0.8,0.4c-0.8,1.1-1.7,2.2-2.5,3.2c-0.7,0.8-1.4,0.8-2.1,0c-0.9-1.1-1.7-2.2-2.6-3.3
		c-0.2-0.3-0.4-0.4-0.7-0.4c-1.5,0-3.1,0-4.6,0c-2.8,0-4.8-2-4.9-4.7c0-4.9,0-9.9,0-14.8C32.4,2,34.5,0,37.2,0C40.2,0,43.2,0,46.2,0
		z"/>
	<path class="st1" d="M26.5,13.7c-0.8-0.2-1.2-0.6-1.2-1.2c0-0.6,0.4-1,1.2-1.2c0.8,0.2,1.2,0.6,1.2,1.2
		C27.6,13.1,27.2,13.5,26.5,13.7z"/>
	<path class="st2" d="M23.5,48.2c0-2.6,0-5.2,0-7.8c0-0.4,0.1-0.6,0.5-0.8c1-0.5,1.9-1,2.8-1.6c1.7-1.2,2.9-2.8,3.6-4.8
		c0.6-1.5,1.1-3.1,1.7-4.6c0.1-0.4,0.3-0.4,0.6-0.3c1.9,0.7,2.8,2.5,2.2,4.4c-0.4,1.4-0.9,2.8-1.4,4.2c-0.4,1.3,0,1.9,1.4,1.9
		c2.9,0,5.9,0,8.8,0c0.7,0,1.2,0.3,1.4,0.9c0.2,0.5,0.1,1.1-0.3,1.5c-0.3,0.4-0.8,0.5-1.3,0.5c-1.7,0-3.3,0-5,0
		c-1,0-1.6,0.8-1.3,1.6c0.2,0.6,0.7,0.7,1.3,0.7c2.3,0,4.7,0,7,0c0.9,0,1.5,0.5,1.6,1.2c0.1,0.9-0.5,1.7-1.6,1.7c-2.4,0-4.7,0-7.1,0
		c-0.6,0-1.1,0.2-1.3,0.8c-0.3,0.8,0.3,1.6,1.2,1.6c1.7,0,3.5,0,5.2,0c0.5,0,1,0.1,1.3,0.5c0.4,0.4,0.5,0.9,0.2,1.5
		c-0.3,0.6-0.7,0.9-1.4,0.9c-1.8,0-3.5,0-5.3,0c-0.6,0-1.1,0.2-1.3,0.7c-0.4,0.8,0.2,1.6,1.1,1.6c1.1,0,2.1,0,3.2,0
		c1,0,1.7,0.6,1.7,1.4c0,0.9-0.7,1.5-1.7,1.5c-4.3,0-8.6,0-12.9,0c-1.8,0-3.4-0.5-5-1.1c-0.3-0.1-0.3-0.4-0.3-0.6
		C23.5,53.4,23.5,50.8,23.5,48.2z"/>
	<path class="st3" d="M12.6,48.3c0-2.9,0-5.9,0-8.8c0-0.4,0.1-0.6,0.6-0.6c0.8,0,1.7,0,2.5,0c0.4,0,0.5,0.1,0.5,0.5
		c0,3.7,0,7.3,0,11c0,0.3,0,0.5,0.1,0.8c0.1,0.5,0.6,0.9,1.1,0.8c0.5,0,1-0.4,1.1-1c0-0.2,0-0.5,0-0.7c0-3.6,0-7.3,0-10.9
		c0-0.5,0.1-0.6,0.6-0.6c0.5,0,1,0,1.5,0c0.5,0,0.6,0.1,0.6,0.6c0,4.5,0,9.1,0,13.6c0,1.3,0,2.7,0,4c0,0.4-0.1,0.5-0.5,0.5
		c-2.5,0-5.1,0-7.6,0c-0.4,0-0.5-0.2-0.5-0.5C12.6,54.2,12.6,51.2,12.6,48.3z"/>
	<path d="M15.2,15.4c0,0.5,0,1,0,1.5c0,0.7-0.5,1.2-1.1,1.2c-0.6,0-1.2-0.5-1.2-1.2c0-1,0-2,0-3c0-0.3,0-0.5-0.4-0.6
		c-0.4-0.1-0.7-0.5-0.7-1c0-0.5,0.2-0.9,0.6-1c0.4-0.1,0.4-0.4,0.4-0.7c0-1.6,0.6-2.9,2.1-3.7c0.6-0.3,1.3-0.4,2-0.4
		c0.7,0,1.2,0.5,1.2,1.2c0,0.6-0.5,1.1-1.2,1.2c-0.3,0-0.5,0-0.8,0.1c-0.7,0.2-1.2,1.5-0.9,2.1c0.1,0.2,0.2,0.1,0.3,0.1
		c0.4,0,0.7,0,1.1,0c0.7,0,1.2,0.5,1.2,1.2c0,0.6-0.5,1.1-1.1,1.2c-0.1,0-0.2,0-0.3,0c-1.1,0-1.1,0-1.1,1.2
		C15.2,14.8,15.2,15.1,15.2,15.4C15.2,15.4,15.2,15.4,15.2,15.4z"/>
	<path class="st4" d="M46.2,2.3c2.9,0,5.8,0,8.7,0c1.8,0,2.7,1,2.7,2.8c0,4.7,0,9.4,0,14.1c0,1.8-0.9,2.8-2.7,2.8
		c-1.7,0-3.4,0-5.2,0c-0.6,0-1,0.2-1.4,0.7c-0.6,0.8-1.3,1.6-1.9,2.5c-0.2,0.3-0.3,0.3-0.6,0c-0.6-0.8-1.3-1.7-1.9-2.5
		c-0.3-0.5-0.8-0.7-1.4-0.7c-1.8,0-3.5,0-5.3,0c-1.6,0-2.6-1-2.6-2.6c0-4.8,0-9.6,0-14.4c0-1.6,1-2.6,2.6-2.6
		C40.3,2.3,43.2,2.3,46.2,2.3z"/>
	<path class="st5" d="M18.5,54.4c0,0.6-0.5,1.1-1.1,1.1c-0.6,0-1.2-0.5-1.2-1.1c0-0.6,0.6-1.2,1.2-1.2C18,53.3,18.5,53.8,18.5,54.4z
		"/>
	<path d="M41.4,15.1c-1.1-1.1-1.7-2.3-1.8-3.8c0-0.2-0.1-0.3,0-0.5c0.5-0.8,0.1-1.7,0-2.5c0-0.8,0.1-1.6,0.5-2.4
		c0.5-1,1.4-1.2,2.1-0.3c0.9,1,1.9,1.8,3.1,2.4c0.3,0.1,0.4,0.2,0.6-0.2c0.9-2.4,3.7-3.3,5.9-1.9c0.4,0.2,0.7,0.2,1.1,0.2
		c1.3,0,1.8,0.8,1.3,1.9c-0.4,0.8-0.6,1.6-0.7,2.5c-0.4,4.3-4,7.7-8.2,8c-2,0.1-3.8-0.3-5.5-1.3C39.1,17,38.9,16.6,39,16
		c0.1-0.5,0.6-0.9,1.3-0.8C40.6,15.1,41,15.1,41.4,15.1z"/>
	<path class="st6" d="M41.9,8.9c0.3-0.1,0.5,0.1,0.6,0.3c1.2,0.9,2.5,1.5,3.9,1.8c0.9,0.2,1.7-0.4,1.5-1.3c-0.1-0.8,0.1-1.5,0.8-1.8
		c0.7-0.4,1.3-0.2,2,0.3c0.4,0.3,0.5,0.6,0.5,1.1c-0.1,1-0.2,2-0.6,3c-1.1,2.6-3,3.9-5.8,4.1c0-0.2,0.1-0.2,0.2-0.3
		c0.4-0.4,0.5-0.8,0.4-1.3c-0.2-0.5-0.5-0.7-1-0.8c-1-0.2-1.4-0.5-2-1.4c0.1,0,0.2-0.1,0.3-0.1c1-0.3,1.2-1.3,0.5-2
		c-0.2-0.2-0.5-0.4-0.7-0.7C42.2,9.5,42.1,9.2,41.9,8.9z"/>
</g>
</svg>
