<?xml version="1.0" encoding="utf-8"?>
<!-- Generator: Adobe Illustrator 25.2.1, SVG Export Plug-In . SVG Version: 6.00 Build 0)  -->
<svg version="1.1" id="Camada_1" xmlns="http://www.w3.org/2000/svg" xmlns:xlink="http://www.w3.org/1999/xlink" x="0px" y="0px"
	 viewBox="0 0 764.1 484" style="enable-background:new 0 0 764.1 484;" xml:space="preserve">
<style type="text/css">
	.st0{fill:#212529;}
	.st1{fill:#6C757D;}
	.st2{fill:#CED4DA;}
	.st3{fill:#ADB5BD;}
	.st4{fill:#A0616A;}
	.st5{fill:#343A40;}
</style>
<path class="st0" d="M758.4,317h-295c-3.2,0-5.7-2.6-5.7-5.7V5.7c0-3.2,2.6-5.7,5.7-5.7h295c3.2,0,5.7,2.6,5.7,5.7v305.5
	C764.1,314.4,761.5,317,758.4,317z M463.4,2c-2.1,0-3.7,1.7-3.7,3.7v305.5c0,2.1,1.7,3.7,3.7,3.7h295c2.1,0,3.7-1.7,3.7-3.7V5.7
	c0-2.1-1.7-3.7-3.7-3.7H463.4z"/>
<path class="st1" d="M666.5,128.4c16.6,30.7,5.2,69.1-25.5,85.7s-69.1,5.2-85.7-25.5c-16.6-30.7-5.2-69.1,25.5-85.7
	c9.2-5,19.6-7.6,30.1-7.6c0.5,0,1,0,1.5,0l-0.7-27c-0.3,0-0.6,0-0.8,0c-49.8,0-90.2,40.4-90.2,90.2c0,49.8,40.4,90.2,90.2,90.2
	c49.8,0,90.2-40.4,90.2-90.2c0-16.3-4.4-32.4-12.9-46.4L666.5,128.4z"/>
<path class="st2" d="M666.5,128.4l21.7-16.3c-16.2-26.9-45.1-43.5-76.5-43.8l0.7,27C635,95.8,655.7,108.5,666.5,128.4L666.5,128.4z"
	/>
<path class="st0" d="M655.7,237l1.1-1.1l31.7,32l-1.1,1.1L655.7,237z"/>
<path class="st0" d="M655.1,79.4l22-39.3l1.4,0.8l-22,39.3L655.1,79.4z"/>
<g transform="translate(-217.9429 -208)">
	<path class="st1" d="M929.6,488.8h-46.8c-1.7,0-3.1-1.4-3.1-3.1v-6.6c0-1.7,1.4-3.1,3.1-3.1h46.8c1.7,0,3.1,1.4,3.1,3.1v6.6
		C932.7,487.4,931.3,488.8,929.6,488.8z"/>
	<path class="st2" d="M917.7,249.1H871c-1.7,0-3.1-1.4-3.1-3.1v-6.6c0-1.7,1.4-3.1,3.1-3.1h46.8c1.7,0,3.1,1.4,3.1,3.1v6.6
		C920.8,247.7,919.4,249.1,917.7,249.1z"/>
	<path class="st0" d="M628.4,353.9H295.1c-3,0-5.5-2.4-5.5-5.5V214.5c0-3,2.4-5.5,5.5-5.5h333.4c3,0,5.5,2.4,5.5,5.5v133.9
		C633.9,351.4,631.5,353.9,628.4,353.9z M295.1,211c-1.9,0-3.5,1.6-3.5,3.5v133.9c0,1.9,1.6,3.5,3.5,3.5h333.4
		c1.9,0,3.5-1.6,3.5-3.5V214.5c0-1.9-1.6-3.5-3.5-3.5H295.1z"/>
	<path class="st2" d="M425,320.6h-32.3c-1.7,0-3.2-1.2-3.4-2.9c-2.1-13.7-2.1-27.6,0-41.3c0.3-1.7,1.7-2.9,3.4-2.9H425
		c1.1,0,2.1,0.5,2.7,1.3c0.7,0.8,0.9,2,0.7,3c-3,12.7-3,25.8,0,38.5c0.3,1,0,2.2-0.7,3C427.1,320.1,426.1,320.6,425,320.6z"/>
	<path class="st2" d="M533.2,320.6h-32.3c-1.7,0-3.2-1.2-3.4-2.9c-2.1-13.7-2.1-27.6,0-41.3c0.3-1.7,1.7-2.9,3.4-2.9h32.3
		c1.1,0,2.1,0.5,2.7,1.3c0.7,0.8,0.9,2,0.7,3c-3,12.7-3,25.8,0,38.5c0.3,1,0,2.2-0.7,3C535.2,320.1,534.2,320.6,533.2,320.6
		L533.2,320.6z"/>
	<path class="st1" d="M370.1,289.4h-32.3c-1.7,0-3.2-1.2-3.4-2.9c-2.1-13.7-2.1-27.6,0-41.3c0.3-1.7,1.7-2.9,3.4-2.9h32.3
		c1.1,0,2.1,0.5,2.7,1.3c0.7,0.8,0.9,2,0.7,3c-3,12.7-3,25.8,0,38.5c0.3,1,0,2.2-0.7,3C372.1,288.9,371.1,289.4,370.1,289.4z"/>
	<path class="st1" d="M479.3,289.4H447c-1.1,0-2.1-0.5-2.7-1.3c-0.7-0.8-0.9-2-0.7-3c3-12.7,3-25.8,0-38.5c-0.3-1,0-2.2,0.7-3
		c0.7-0.8,1.7-1.3,2.7-1.3h32.3c1.7,0,3.2,1.2,3.4,2.9c2.1,13.7,2.1,27.6,0,41.3C482.5,288.1,481,289.4,479.3,289.4z"/>
	<path class="st3" d="M585.7,289.4h-32.3c-1.1,0-2.1-0.5-2.7-1.3c-0.7-0.8-0.9-2-0.7-3c3-12.7,3-25.8,0-38.5c-0.3-1,0-2.2,0.7-3
		c0.7-0.8,1.7-1.3,2.7-1.3h32.3c1.7,0,3.2,1.2,3.4,2.9c2.1,13.7,2.1,27.6,0,41.3C588.9,288.1,587.4,289.4,585.7,289.4z"/>
	<path class="st4" d="M405.9,527.5c-5.8-1.2-9.6-6.9-8.4-12.7c0.1-0.6,0.3-1.2,0.5-1.8l-44.3-95.2l22.5-6.3l36.5,95.7
		c5.4,2.6,7.7,9,5.1,14.4C415.7,526,410.8,528.5,405.9,527.5L405.9,527.5z"/>
</g>
<path class="st4" d="M102.1,471.4h12.3l5.8-47.3h-18.1L102.1,471.4z"/>
<path class="st5" d="M138,482.7l-38.5,0l0,0l0-14.9l0,0l23.6,0C131.3,467.9,138,474.5,138,482.7L138,482.7z"/>
<path class="st4" d="M38.4,458.1l11.3,4.8l24-41.2L57,414.7L38.4,458.1z"/>
<path class="st5" d="M66.9,482.7l-35.4-15.2l0,0l5.9-13.7l0,0l21.7,9.3C66.6,466.4,70.1,475.2,66.9,482.7L66.9,482.7z"/>
<circle class="st4" cx="132.4" cy="140.6" r="24.6"/>
<path class="st5" d="M114.6,459.8l-13.5-2.6c-2.3-0.4-3.9-2.6-3.6-4.9l8.9-87.3c0.2-1.9-1.2-3.6-3.1-3.8c-1.5-0.2-3,0.7-3.6,2.1
	l-39.1,91.2c-1,2.3-3.6,3.3-5.9,2.4c0,0,0,0-0.1,0l-11-4.9c-2.1-0.9-3.2-3.3-2.4-5.5L68,366.3c0.1-0.2,0.1-0.5,0.2-0.7l8.7-73.2
	c0.2-1.6,1.3-3,2.8-3.6l27.4-11.1c1.7-0.7,3.6-0.3,4.8,0.9l34.6,33.7c1.1,1.1,1.6,2.6,1.3,4.1l-27.8,140c-0.4,2.1-2.3,3.6-4.4,3.6
	C115.2,459.9,114.9,459.9,114.6,459.8L114.6,459.8z"/>
<path class="st2" d="M99.3,296.4c-4.8-5.5-8.3-8.1-10.7-7.7c-2.4,0.4-3.7,3.7-5.2,7.2c-2,4.8-4.2,10.2-9.7,10.6
	c-1.8,0.3-3.5-0.4-4.6-1.9c-4.3-6.5,6.1-27.8,7-29.7l-0.5-101.1c0-1.7,0.9-3.2,2.4-4c28.6-15.4,67.3,11.4,74.7,16.9
	c1.2,0.9,1.9,2.3,1.8,3.8c-0.9,16.9-5.4,102.3-5.4,121.4c0,5.3-1.8,8.6-5.4,10c-1.2,0.4-2.5,0.6-3.8,0.6
	C129,322.6,111.1,310.1,99.3,296.4L99.3,296.4z"/>
<path class="st2" d="M139.2,247.3c-1.2-0.8-2-2.1-2-3.6l-1.9-45.3c-0.3-6.5,4.8-12,11.2-12.2c5.1-0.2,9.7,2.8,11.5,7.5l14.5,38
	c0.9,2.3-0.3,4.9-2.6,5.8l-26.6,10.1C141.9,248.3,140.4,248.1,139.2,247.3L139.2,247.3z"/>
<path class="st4" d="M71.6,318c-4.9-3.3-6.2-10-2.9-14.9c0.4-0.5,0.8-1,1.2-1.5l-4.7-104.9l23.2,2.7l-2.7,102.4
	c4,4.4,3.7,11.3-0.8,15.3C81.3,320.5,75.8,320.8,71.6,318L71.6,318z"/>
<path class="st2" d="M55.5,224.7c-0.9-1.2-1.1-2.7-0.6-4.1l14.3-43c2.1-6.2,8.7-9.5,14.9-7.4c4.8,1.6,8,6.1,8,11.1v40.7
	c0,2.5-2,4.5-4.5,4.5H59.2C57.7,226.6,56.4,225.9,55.5,224.7z"/>
<path class="st5" d="M116.5,157.1c-1.9,1.5-4.6,1.4-6.4-0.3c-5.3-4.9-9.7-10.8-12-17.6c-2.6-7.8-1.9-17,3-23.5
	c4.2-5.6,10.8-8.7,17.3-11.2c2.5-1.1,5.2-1.8,8-2.1c2.8-0.3,5.5,0.5,7.8,2.2c2.2,1.8,3.1,4.7,2.3,7.4c3.3-3,7.4-5.1,11.8-6.1
	c2.8-0.7,5.7-0.6,8.4,0.3c3.8,1.6,6.2,5.3,7.3,9.3c0.9,3,1,6.2,0.2,9.2c-0.8,3-2.9,5.6-5.7,7c-3.5,1.6-7.5,1-11.2-0.2
	s-7-3.1-10.8-3.9s-8-0.3-10.7,2.4c-1.9,1.9-2.6,4.7-3.3,7.3l-3.5,13.5c-0.4,2-1.1,3.9-2.2,5.6C117,156.7,116.8,156.9,116.5,157.1
	L116.5,157.1z"/>
<path class="st1" d="M216.1,352.4h-32.3c-1.7,0-3.2-1.2-3.4-2.9c-2.1-13.7-2.1-27.6,0-41.3c0.3-1.7,1.7-2.9,3.4-2.9h32.3
	c1.1,0,2.1,0.5,2.7,1.3c0.7,0.8,0.9,2,0.7,3c-3,12.7-3,25.8,0,38.5c0.3,1,0,2.2-0.7,3C218.2,351.9,217.2,352.4,216.1,352.4z"/>
<path class="st0" d="M162,484H1c-0.6,0-1-0.4-1-1s0.4-1,1-1h161c0.6,0,1,0.4,1,1S162.6,484,162,484z"/>
</svg>
