<?xml version="1.0" encoding="utf-8"?>
<!-- Generator: Adobe Illustrator 25.2.1, SVG Export Plug-In . SVG Version: 6.00 Build 0)  -->
<svg version="1.1" id="Camada_1" xmlns="http://www.w3.org/2000/svg" xmlns:xlink="http://www.w3.org/1999/xlink" x="0px" y="0px"
	 viewBox="0 0 963.5 774.4" style="enable-background:new 0 0 963.5 774.4;" xml:space="preserve">
<style type="text/css">
	.st0{opacity:0.1;fill:#FF9600;enable-background:new    ;}
	.st1{display:none;opacity:0.7;fill:#FFFFFF;enable-background:new    ;}
	.st2{fill:#1A2E35;}
	.st3{opacity:0.2;fill:#FFFFFF;enable-background:new    ;}
	.st4{fill:none;stroke:#1A2E35;stroke-width:2.4051;stroke-linecap:round;stroke-linejoin:round;stroke-miterlimit:10;}
	.st5{fill:#FFFFFF;}
	.st6{opacity:0.44;fill:#FFFFFF;enable-background:new    ;}
	.st7{fill:none;stroke:#FFFFFF;stroke-width:2.4051;stroke-miterlimit:10;}
	.st8{fill:#454153;}
	.st9{fill:#FF9600;}
	.st10{fill:none;stroke:#1A2E35;stroke-width:1.2025;stroke-miterlimit:10;}
	.st11{fill:#FFFFFF;stroke:#1A2E35;stroke-width:1.2025;stroke-miterlimit:10;}
	.st12{opacity:0.2;enable-background:new    ;}
	.st13{fill:#454153;stroke:#454153;stroke-width:2.4051;stroke-linecap:round;stroke-linejoin:round;stroke-miterlimit:10;}
	.st14{fill:#FFFFFF;stroke:#454153;stroke-width:2.4051;stroke-linecap:round;stroke-linejoin:round;stroke-miterlimit:10;}
	.st15{fill:#808080;stroke:#1A2E35;stroke-width:2.4051;stroke-linecap:round;stroke-linejoin:round;stroke-miterlimit:10;}
	.st16{fill:#FF9600;stroke:#454153;stroke-width:2.4051;stroke-linecap:round;stroke-linejoin:round;stroke-miterlimit:10;}
	.st17{fill:#808080;stroke:#2B243B;stroke-width:2.4051;stroke-linecap:round;stroke-linejoin:round;stroke-miterlimit:10;}
	.st18{opacity:0.2;clip-path:url(#SVGID_2_);enable-background:new    ;}
	.st19{fill:none;stroke:#454153;stroke-width:2.4051;stroke-linecap:round;stroke-linejoin:round;stroke-miterlimit:10;}
	.st20{fill:#2B243B;}
	.st21{clip-path:url(#SVGID_4_);fill:#FF9600;}
	.st22{opacity:0.5;clip-path:url(#SVGID_6_);fill:#FFFFFF;enable-background:new    ;}
	.st23{opacity:0.2;clip-path:url(#SVGID_8_);enable-background:new    ;}
	.st24{opacity:0.2;clip-path:url(#SVGID_10_);enable-background:new    ;}
	.st25{clip-path:url(#SVGID_12_);fill:#FF9600;}
	.st26{opacity:0.5;clip-path:url(#SVGID_14_);fill:#FFFFFF;enable-background:new    ;}
	.st27{clip-path:url(#SVGID_16_);}
	.st28{fill:none;stroke:#454153;stroke-width:2.4051;stroke-miterlimit:10;}
	.st29{fill:none;stroke:#2B243B;stroke-width:2.4051;stroke-linecap:round;stroke-linejoin:round;stroke-miterlimit:10;}
</style>
<g>
	<g>
		<path class="st0" d="M120.5,301.4c0,0-31.6,135,56.4,252.5s241.3,163.3,364.6,203.6s238.7-6.2,282-109.8S779.3,488.3,760,353
			s-3.9-174.3-93.9-277.3S391.6-24.8,266.7,80.9C141.9,186.7,120.5,301.4,120.5,301.4z"/>
		<path class="st1" d="M120.5,301.4c0,0-31.6,135,56.4,252.5s241.3,163.3,364.6,203.6s238.7-6.2,282-109.8S779.3,488.3,760,353
			s-3.9-174.3-93.9-277.3S391.6-24.8,266.7,80.9C141.9,186.7,120.5,301.4,120.5,301.4z"/>
	</g>
	<g>
		<g>
			<polygon class="st2" points="348.6,351.8 258.9,351.8 141.3,36.4 231.1,36.4 			"/>
			<polygon class="st3" points="348.6,351.8 258.9,351.8 141.3,36.4 231.1,36.4 			"/>
			<path class="st2" d="M207.1,113.4h-23c-2.9,0-6-2.3-7.2-5.2l-8.9-24c-1-2.9,0.3-5.2,3.3-5.2h23c2.9,0,6,2.3,7.2,5.2l8.9,24
				C211.4,111,210,113.4,207.1,113.4z"/>
			<polygon class="st2" points="237,52.3 147.3,52.3 141.3,36.4 231.1,36.4 			"/>
			<g>
				<line class="st4" x1="177.9" y1="54.9" x2="180.5" y2="61.9"/>
				<line class="st4" x1="181.4" y1="54.9" x2="184" y2="61.9"/>
				<line class="st4" x1="184.9" y1="54.9" x2="187.5" y2="61.9"/>
				<line class="st4" x1="188.3" y1="54.9" x2="190.9" y2="61.9"/>
				<line class="st4" x1="191.8" y1="54.9" x2="194.3" y2="61.9"/>
				<line class="st4" x1="195.2" y1="54.9" x2="197.9" y2="61.9"/>
				<line class="st4" x1="198.7" y1="54.9" x2="201.3" y2="61.9"/>
				<line class="st4" x1="202.2" y1="54.9" x2="204.7" y2="61.9"/>
				<line class="st4" x1="205.6" y1="54.9" x2="208.3" y2="61.9"/>
				<line class="st4" x1="209.1" y1="54.9" x2="211.7" y2="61.9"/>
			</g>
			<g>
				<path class="st5" d="M199.7,98.4L178,84.6c-0.5-0.3-1-0.3-1.5-0.1c-0.3,0.2-0.5,0.7-0.2,1.3l9.9,21.5c0.2,0.6,0.8,0.9,1.4,1.1
					c0.1,0,0.2,0,0.3,0c0.5,0,0.7-0.2,0.8-0.6l2.3-7.1l8.7-0.1c0.6,0,0.9-0.3,0.9-0.8C200.5,99.3,200.2,98.7,199.7,98.4z"/>
				<g>
					<polygon class="st2" points="199.2,99.4 177.4,85.6 187.5,107 189.9,99.5 					"/>
				</g>
			</g>
			<polygon class="st5" points="239.9,99.4 218.1,85.6 228.1,107 230.5,99.5 			"/>
			<polygon class="st5" points="250.9,111.6 249,107.1 246.5,110.9 			"/>
			<polygon class="st5" points="303.5,252.6 301.6,248.2 299,251.8 			"/>
			<polygon class="st5" points="319.6,295.9 317.7,291.4 315.1,295.2 			"/>
			<polygon class="st5" points="336.2,340.3 334.2,335.8 331.6,339.5 			"/>
			<polygon class="st5" points="243.6,202.7 241.6,198.2 239.1,202 			"/>
			<polygon class="st5" points="262.2,252.6 260.3,248.2 257.7,251.8 			"/>
			<polygon class="st5" points="278.3,295.9 276.4,291.4 273.7,295.2 			"/>
			<polygon class="st5" points="294.9,340.3 292.9,335.8 290.3,339.5 			"/>
			<g>
				<polygon class="st5" points="199.7,159.1 203.5,161.5 213.8,139.8 210.1,137.4 				"/>
				<path class="st5" d="M204.3,137.8c-5.5-4.3-5.9-5.1-4.6-10c-2.9,3.9-3.7,4-9.7,0.8c5.5,4.3,5.9,5.1,4.6,10
					C197.4,134.8,198.2,134.6,204.3,137.8z"/>
				<path class="st5" d="M222.4,140.1c-3.4-2.6-3.7-3.2-2.9-6.2c-1.7,2.4-2.3,2.4-6,0.5c3.4,2.6,3.7,3.2,2.9,6.2
					C218.2,138.3,218.8,138.2,222.4,140.1z"/>
				<path class="st5" d="M221.4,150.4c-2.4-1.9-2.6-2.3-2.1-4.4c-1.3,1.7-1.6,1.7-4.3,0.3c2.4,1.9,2.6,2.3,2.1,4.4
					C218.4,149,218.8,149,221.4,150.4z"/>
			</g>
			<polygon class="st5" points="275.9,246.5 278.2,248.2 288.6,226.5 286.3,224.8 			"/>
			<g>
				<g>
					<polygon class="st5" points="267.2,153.5 248.1,141.3 256.9,160.3 259,153.6 					"/>
				</g>
				<g>
					<path class="st5" d="M252.8,154.6c-7.1,0-14.3-4.1-16.2-9.2s2.3-9.2,9.4-9.2s14.3,4.1,16.2,9.2
						C263.9,150.4,259.8,154.6,252.8,154.6z M246.4,137.3c-6.4,0-10.3,3.7-8.6,8.1s8.2,8.1,14.7,8.1c6.4,0,10.3-3.7,8.6-8.1
						C259.3,140.8,252.8,137.3,246.4,137.3z"/>
				</g>
				<g>
					<path class="st5" d="M244.3,152.8c-1.7,0-3.7-1.4-4.3-3.2c-0.7-1.7,0.2-3.2,1.9-3.2c1.7,0,3.7,1.4,4.3,3.2
						C246.9,151.3,246,152.8,244.3,152.8z M242.4,147.5c-1.1,0-1.7,0.9-1.3,2.1c0.5,1.1,1.7,2.1,2.7,2.1c1.1,0,1.7-0.9,1.3-2.1
						C244.8,148.5,243.5,147.5,242.4,147.5z"/>
				</g>
				<g>
					<path class="st5" d="M244.7,156l-0.8-1c1.4-0.6,2.2-1.4,2.3-2.5c0.1-1.4-0.8-2.7-0.8-2.7l0.9-0.3c0,0.1,1.3,1.7,1.1,3.5
						C247.2,154.3,246.2,155.4,244.7,156z"/>
				</g>
			</g>
			<g>
				<polygon class="st5" points="232.6,187.2 219.2,177.5 216.4,182.1 229.8,191.8 				"/>
				<path class="st5" d="M211.2,199.9l2.2,1.6l4.9-7.8c-0.6-0.6-0.8-1.4-0.5-1.8c0.3-0.6,1.4-0.6,2.2,0c0.8,0.6,1.1,1.6,0.8,2.2
					c-0.3,0.5-1,0.6-1.7,0.2l-4.9,7.8l2.1,1.5l12.1-3.4l0.8-7.2l-13.2-9.6l-6,3.3L211.2,199.9z"/>
			</g>
			<line class="st4" x1="198.6" y1="169.3" x2="275.8" y2="169.3"/>
			<g>
				<polygon class="st5" points="265.8,177.5 262.9,182.1 276.3,191.8 279.1,187.2 				"/>
				<path class="st5" d="M256.3,186.7l1.5,13.2l2.2,1.6l4.9-7.8c-0.6-0.6-0.8-1.4-0.5-1.8c0.3-0.6,1.4-0.6,2.2,0
					c0.8,0.6,1.1,1.6,0.8,2.2c-0.3,0.5-1,0.6-1.7,0.2l-4.9,7.8l2.1,1.5l12.1-3.4l0.8-7.2l-13.2-9.6L256.3,186.7z"/>
				<path class="st5" d="M253,190.6c0.1-0.9,0.2-1.9,0.3-3.1c0.2-2.3-0.5-4.3-1.9-6c-2.3-2.7-5.7-3.7-5.9-3.7
					c-0.3-0.1-0.7,0.1-0.6,0.5c0,0.3,0.3,0.7,0.7,0.8c0,0,3,0.8,4.8,3c1.1,1.4,1.7,3.1,1.5,5c-0.1,1.1-0.2,2.2-0.3,3.1
					c-0.7,4.8-1,7.8,7,12.4c0.1,0.1,0.3,0.1,0.5,0.1c0.2,0,0.3-0.1,0.5-0.2c0.1-0.2-0.1-0.7-0.5-0.9
					C252.1,197.3,252.3,195.3,253,190.6z"/>
			</g>
			<path class="st5" d="M218.8,222.7l0.5,1.3c0.1,0.5,1.6,4.3,2.4,5.7l2.3-0.6c-0.3-0.6-1.1-2.4-1.7-3.9h9.6l8,21.5h-3.5l0.9,2.5
				h9.7l-0.9-2.5h-3.5l-8-21.5h9.2c0.5,1.4,1.3,3.4,1.7,4.6h2.5c-0.6-1.6-2.2-5.8-2.2-5.8l-0.5-1.3H218.8z"/>
			<g>
				<path class="st6" d="M269,282.2c2.1,5.5-2.5,9.9-10.2,9.9c-7.6,0-15.5-4.4-17.6-9.9c-2.1-5.5,2.5-9.9,10.2-9.9
					S266.9,276.7,269,282.2z"/>
				<path class="st7" d="M269,282.2c2.1,5.5-2.5,9.9-10.2,9.9c-7.6,0-15.5-4.4-17.6-9.9c-2.1-5.5,2.5-9.9,10.2-9.9
					S266.9,276.7,269,282.2z"/>
			</g>
			<g>
				<path class="st5" d="M297.4,282.5l9-16.4c0.3-0.7,1.4-0.8,2.3-0.3l0,0c1.1,0.6,1.9,1.8,1.6,2.7l-4.9,18.3L297.4,282.5z"/>
				<path class="st5" d="M295.9,283.9c3.5-0.5,10.5,2.6,10.7,7.2c0,1.1-0.7,1.9-1.6,2.5c-2.7,1.6-6.5,1.7-10.2,1.7
					c0.9-0.6,1.3-1.8,1-3.1c-0.2-1.3-1.1-2.6-1.6-3.9C293.5,286.5,293.8,284,295.9,283.9"/>
			</g>
			<g>
				<path class="st5" d="M277.1,320.1c-1-2.3-2.4-3.8-3.3-4.4l-2.7,4.3c1,0.9,2.6,2.5,3.8,5.1c1,2.3,2.1,4,2.7,5l2.7-4.2
					C279.3,324.5,278.2,322.6,277.1,320.1z"/>
				<path class="st5" d="M273.9,325.1c-1-2.3-2.4-3.8-3.3-4.4l-2.7,4.3c1,0.9,2.6,2.5,3.8,5.1c1,2.3,2.1,4,2.7,5l2.7-4.2
					C276.1,329.5,275,327.6,273.9,325.1z"/>
				<path class="st5" d="M278,319.9c1,2.3,2.1,4,2.7,5l4-6.3l-8.8-6.4l-1.6,2.6C275.2,315.7,276.7,317.3,278,319.9z"/>
				<path class="st5" d="M270.7,330.1c-1-2.3-2.4-3.8-3.3-4.4l-2.3,3.7l0.3,8.3c0,0.6,0.8,1.1,1.3,0.9l7.1-2.7
					C272.9,334.5,271.8,332.5,270.7,330.1z M267.6,335.7l-0.2-4.4l4,3L267.6,335.7z"/>
			</g>
			<path class="st5" d="M305.4,323.9l-3,4.8l15.5,11.3l3-4.8l0.9,0.7l7.1-11.3L311.4,312l-7.1,11.3L305.4,323.9z M316.9,337.3
				l-11.8-8.6l2.2-3.4l11.8,8.6L316.9,337.3z"/>
			<g>
				<polygon class="st5" points="158.6,40.6 159.2,42.1 157,44.7 161.2,47.4 161.8,49 155.3,44.7 				"/>
				<polygon class="st5" points="153.3,40.6 153.8,42.1 151.7,44.7 155.8,47.4 156.3,49 149.8,44.7 				"/>
			</g>
		</g>
		<g>
			<polygon class="st8" points="522.5,225.6 336.8,225.6 280,67.2 465.8,67.2 			"/>
			<polygon class="st9" points="509.4,216.9 343.8,216.9 293.3,75.9 458.8,75.9 			"/>
			<polygon class="st5" points="477.9,129.1 450.5,109 428.9,165.1 372.8,149.3 343.8,216.9 509.4,216.9 			"/>
			<path class="st5" d="M363.8,106.1c-3.9-10.7-15.6-19.4-26.4-19.4s-16.3,8.7-12.4,19.4s15.6,19.4,26.4,19.4
				C362.1,125.5,367.7,116.8,363.8,106.1z"/>
		</g>
		<g>
			<polygon class="st8" points="541.8,198.3 356.1,198.3 299.3,39.9 485.1,39.9 			"/>
			<polygon class="st9" points="528.6,189.6 363.1,189.6 312.4,48.6 478,48.6 			"/>
			<polygon class="st5" points="497.2,101.9 469.8,81.7 448.1,137.8 392.1,122 363.1,189.6 528.6,189.6 			"/>
			<path class="st5" d="M383.1,78.9c-3.9-10.7-15.6-19.4-26.4-19.4s-16.3,8.7-12.4,19.4c3.9,10.7,15.6,19.4,26.4,19.4
				S386.9,89.6,383.1,78.9z"/>
		</g>
		<g>
			<g>
				<path d="M542.6,15.1l4.4,10.8h-1.3c-0.9-1.9-1.8-3.3-2.5-4.1c-1.1-1.4-2.5-2.3-3.9-3c-1.4-0.6-3.1-0.9-4.9-0.9H528l12.9,35.3
					c1,2.9,1.9,4.6,2.9,5.4c1.3,0.9,2.7,1.5,4.6,1.5h1.6l0.5,1.3h-19.6l-0.5-1.3h1.6c1.9,0,3.1-0.6,3.5-1.8c0.2-0.7-0.1-2.4-1-5
					l-12.9-35.3h-5.6c-2.2,0-3.7,0.1-4.4,0.5c-1,0.5-1.7,1.3-2.2,2.5c-0.3,1.3-0.3,2.9,0.3,5h-1.3l-3.4-10.8H542.6z"/>
			</g>
			<line class="st10" x1="570.7" y1="36.9" x2="584.9" y2="36.9"/>
			<polygon class="st10" points="584.4,74.3 513.2,74.3 487,2.3 558.1,2.3 			"/>
			<polygon class="st11" points="503.2,39.5 497.8,39.5 495.9,34.2 501.3,34.2 			"/>
			<polygon class="st11" points="574.4,39.5 569,39.5 567.1,34.2 572.5,34.2 			"/>
			<polygon class="st11" points="490.6,5.4 485.3,5.4 483.3,0 488.7,0 			"/>
			<polygon class="st11" points="561.8,5.4 556.5,5.4 554.5,0 559.9,0 			"/>
			<polygon class="st11" points="526.2,5.4 521,5.4 519.1,0 524.3,0 			"/>
			<polygon class="st11" points="516.7,76.6 511.4,76.6 509.5,71.2 514.7,71.2 			"/>
			<polygon class="st11" points="587.9,76.6 582.6,76.6 580.6,71.2 585.9,71.2 			"/>
			<line class="st10" x1="549.3" y1="75.5" x2="554.4" y2="89.7"/>
			<polygon class="st11" points="552.4,76.6 547,76.6 545.1,71.2 550.3,71.2 			"/>
			<polygon class="st2" points="558.1,92.3 552.8,92.3 550.8,87.1 556.1,87.1 			"/>
			<line class="st10" x1="509" y1="60.8" x2="568.8" y2="60.8"/>
			<path class="st2" d="M587.6,36.9c-0.6-1.6-2.3-2.9-3.9-2.9s-2.4,1.3-1.8,2.9c0.6,1.6,2.3,2.9,3.9,2.9
				C587.4,39.7,588.2,38.5,587.6,36.9z"/>
		</g>
		<g>
			<polygon class="st12" points="258,418.8 322.5,474 261.1,774.4 265.2,774.4 333.5,479.5 396.1,531.9 307.7,773.9 313.2,773 
				406.2,537.4 664.9,773 822.2,773 638.2,412.3 			"/>
			<g>
				<polygon id="XMLID_50_" class="st13" points="265.2,774.4 261.1,774.4 254.8,413.6 271.5,413.6 				"/>
				<polygon id="XMLID_84_" class="st13" points="623.2,774.4 619.1,774.4 612.8,413.6 629.5,413.6 				"/>
				<rect id="XMLID_62_" x="248.5" y="408" class="st14" width="400.1" height="9.4"/>
			</g>
		</g>
		<g id="XMLID_66_">
			<path id="XMLID_65_" class="st15" d="M406,298c0,2.5-2.4,4.6-5.4,4.6s-5.4-2.1-5.4-4.6s2.4-4.6,5.4-4.6S406,295.5,406,298z"/>
			<path id="XMLID_67_" class="st15" d="M411.1,312c0,2.5-2.4,4.6-5.4,4.6c-3,0-5.4-2.1-5.4-4.6s2.4-4.6,5.4-4.6
				C408.7,307.4,411.1,309.4,411.1,312z"/>
			<path id="XMLID_68_" class="st15" d="M416.3,325.8c0,2.5-2.4,4.6-5.4,4.6s-5.4-2.1-5.4-4.6s2.4-4.6,5.4-4.6
				S416.3,323.3,416.3,325.8z"/>
			<path id="XMLID_69_" class="st15" d="M421.3,339.6c0,2.5-2.4,4.6-5.4,4.6s-5.4-2.1-5.4-4.6s2.4-4.6,5.4-4.6
				C418.9,335.1,421.3,337.1,421.3,339.6z"/>
		</g>
		<g>
			<polygon id="XMLID_112_" class="st13" points="349.3,407.1 312.9,407.1 307.4,346.8 354.8,346.8 			"/>
			<polygon class="st16" points="352.9,366.6 311.1,387.8 312.9,407.1 332.4,407.1 351.2,385.3 			"/>
			<rect id="XMLID_114_" x="303.2" y="339.5" class="st16" width="55.8" height="13.1"/>
		</g>
		<g>
			<g id="XMLID_71_">
				<path id="XMLID_72_" class="st13" d="M457.1,407.8h-65.5c-4.6,0-8.3-3.8-8.3-8.3c0-4.6,3.8-8.3,8.3-8.3h65.5
					c4.6,0,8.3,3.8,8.3,8.3C465.4,404,461.7,407.8,457.1,407.8z"/>
			</g>
			<polygon id="XMLID_63_" class="st13" points="631.3,408 429.6,408 381.5,277 583.3,277 			"/>
			<polygon id="XMLID_64_" class="st17" points="618.6,394.3 446.3,394.3 405.2,282.5 577.5,282.5 			"/>
			<g>
				<path id="XMLID_75_" class="st13" d="M652.4,454.8c0,0-8.7,12.8-15.9,19.3c-7.2,6.5-29,26.7-47.1,57.4
					c-18.1,30.7-30.7,62-42.7,89.1c-12,27.2-33.5,77.2-44.5,92.4c-11,15.3-18.1,23.4-18.1,23.4s-17.9,0.5-39.1-1.5
					c-21.2-1.8-30-5.7-30.2-0.2s14.4,20.8,24.9,23.4c10.5,2.6,24,6.7,27.3,9.8c3.3,3.2,7.3,6.7,12.6,4.4c5.2-2.3,21.2-24.5,39-39.8
					s39-30.5,58.2-66.2c19.2-35.7,20.2-56.1,33.7-69.5c13.5-13.5,27.6-34.5,44.8-45.5c17.1-11.1,68.5-31.6,84.8-53.1
					c16.4-21.3,7.9-47.4-7.9-56.6C716.3,432.4,664.8,428.9,652.4,454.8z"/>
				<g>
					<path id="XMLID_82_" class="st14" d="M515,690.4c-4.8,9.7-9.2,17.8-12.7,22.5c-11,15.3-18.1,23.4-18.1,23.4s-17.9,0.5-39.1-1.5
						c-21.2-1.8-30-5.7-30.2-0.2s14.4,20.8,24.9,23.4c10.5,2.6,24,6.7,27.3,9.8c3.3,3.2,7.3,6.7,12.6,4.4c5.2-2.3,21.2-24.5,39-39.8
						c8.3-7.2,17.3-14.3,26.5-23.4C530.4,705.6,520.5,696.9,515,690.4z"/>
					<path id="XMLID_81_" class="st16" d="M479.4,772.5c1.6-0.7,4.2-3.3,7.5-7c-14.4-2.9-21.8-10.2-28.4-12
						c-9.2-2.6-17.1-7.6-17.1-7.6l7.2-10.6c-1.3-0.1-2.4-0.2-3.7-0.3c-21.2-1.8-30-5.7-30.2-0.2s14.4,20.8,24.9,23.4
						c10.5,2.6,24,6.7,27.3,9.8C470.1,771.1,474.2,774.7,479.4,772.5z"/>
				</g>
			</g>
			<g>
				<path id="XMLID_70_" class="st13" d="M504.3,522.5c0,0,3.9,17.9,12.3,34.9c8.6,17,27.3,34.9,40.8,45.1
					c13.6,10.3,57.5,49.4,79.2,80.4c2.7,3.9-7.6,17-20.4,28.5c-12.8,11.5-18.3,15.7-11.5,17.9c6.8,2.2,22.9,1.3,39.1-12.3
					c16.2-13.6,26.8-22.6,31.9-33.7c2.5-5.5-11.5-12.3-20-19.6c-8.6-7.2-40-54.9-49.7-77c-9.8-22.1-34.5-53.6-52.8-64.7"/>
				<g>
					<path id="XMLID_80_" class="st14" d="M675.8,683.3c2.5-5.5-11.5-12.3-20-19.6c-7.2-6-30.6-40.7-43.7-64.8l-29,25.6
						c18,16.7,40,39,53.5,58.3c2.7,3.9-7.6,17-20.4,28.5c-12.8,11.5-18.3,15.7-11.5,17.9c6.8,2.2,22.9,1.3,39.1-12.3
						C660.1,703.4,670.7,694.4,675.8,683.3z"/>
					<path id="XMLID_79_" class="st16" d="M667,672.1c-2.3,3.4-5.2,8.1-8.7,13.8c-8.1,13.6-30.2,31-33.2,28.1
						c-1.7-1.7-3.3-4.6-4.4-6.7c-1.5,1.4-3,2.9-4.4,4.2c-12.8,11.5-18.3,15.7-11.5,17.9c6.8,2.2,22.9,1.3,39.1-12.3
						c16.2-13.6,26.8-22.6,31.9-33.7C677.4,680,672.9,676.2,667,672.1z"/>
				</g>
			</g>
			<rect id="XMLID_77_" x="638" y="711.1" class="st14" width="144.7" height="6.8"/>
			<path id="XMLID_76_" class="st14" d="M651.2,528.4l-25.3,242.1c-0.1,1.1,0.8,2.2,1.9,2.2l0,0c0.9,0,1.8-0.7,1.9-1.7l37.7-242.6
				L651.2,528.4L651.2,528.4z"/>
			<path id="XMLID_78_" class="st14" d="M766.9,528.4l25.3,242.1c0.1,1.1-0.8,2.2-1.9,2.2l0,0c-0.9,0-1.8-0.7-1.9-1.7l-37.7-242.6
				L766.9,528.4L766.9,528.4z"/>
			<path id="XMLID_83_" class="st14" d="M721,528.4l1.3,242.2c0,1-0.9,1.9-1.9,1.9l0,0c-1,0-1.9-0.8-1.9-1.8l-13.6-242.3L721,528.4
				L721,528.4z"/>
			<g>
				<g>
					<path id="XMLID_74_" class="st9" d="M775,531H641c-6.6,0-12-5.4-12-12v-15.3c0-6.6,5.4-12,12-12h134.1c6.6,0,12,5.4,12,12V519
						C787,525.7,781.6,531,775,531z"/>
				</g>
				<g>
					<defs>
						<path id="SVGID_1_" d="M775,531H641c-6.6,0-12-5.4-12-12v-15.3c0-6.6,5.4-12,12-12h134.1c6.6,0,12,5.4,12,12V519
							C787,525.7,781.6,531,775,531z"/>
					</defs>
					<clipPath id="SVGID_2_">
						<use xlink:href="#SVGID_1_"  style="overflow:visible;"/>
					</clipPath>
					<path class="st18" d="M775,491.9H644l-3.9,8.2c0,0,120.9,2.1,120.9,9.1s2.1,16.1-21.7,16.1c-19.3,0-83.9,0.9-107.7,1.3
						c0.9,1.1,2.2,2.2,3.4,3l7,1.6h132.8c6.6,0,12-5.4,12-12v-15.3C787,497.3,781.6,491.9,775,491.9z"/>
				</g>
				<g>
					<path id="XMLID_1_" class="st19" d="M775,531H641c-6.6,0-12-5.4-12-12v-15.3c0-6.6,5.4-12,12-12h134.1c6.6,0,12,5.4,12,12V519
						C787,525.7,781.6,531,775,531z"/>
				</g>
			</g>
			<path id="XMLID_73_" class="st13" d="M507.8,537.9c-3-9.8-15.3-29.3,43.8-70.3c31.4-21.7,99.2-38.3,99.2-38.3l6.4-7.2
				c0,0,18.3,19.2,54.1,17.9c35.7-1.3,57.8-17,62.2-15.7c4.2,1.3,4.7,12.3,3,33.2c-1.7,20.9-3.9,31.5-20.4,36.6
				c-16.5,5.1-53.2,6.8-79.6,6.4c-26.4-0.5-39.1-2.2-39.1-2.2s-56.6,35.7-92,38.3"/>
			<g>
				<g id="XMLID_51_">
					<path id="XMLID_60_" class="st14" d="M638.9,303.3c-2.6,0.8-80.4,16.2-87.3,14.9s-24.6-16.5-31-16.2
						c-6.4,0.5-19.2,2.5-20.4,5.9c-1.3,3.4,3,14.9,3,14.9s-4.2,6.4-2.2,9.4c2.2,3,14.5-4.2,14.5-4.2s14,10.3,20.4,8.1
						c6.4-2.2,13.2-4.7,13.2-4.7s100.1,5.9,101.3,6.4c1.3,0.5,13.6,3,14.9-14.9C666.5,305,653.7,298.6,638.9,303.3z"/>
					<line id="XMLID_61_" class="st19" x1="503.1" y1="322.9" x2="520.5" y2="308.4"/>
					<polygon id="XMLID_58_" class="st20" points="509.5,316.5 518.8,287.1 522.6,288 517.9,309.2 					"/>
				</g>
				<g>
					<g>
						<path id="XMLID_59_" class="st5" d="M577.9,334.3c0,0-103.5,28.5-120,26.4s-21.7-9.4-25.6-9.4c-3.9,0-14.5,5.1-19.2,4.7
							c-4.7-0.5-10.3-1.7-10.3,1.3s4.2,7.6,6.8,7.6c2.5,0,12.8-0.5,12.8-0.5s-20,5.9-20.9,9.8c-0.8,3.9,1.7,7.2,5.5,8.1
							c3.9,0.8,5.5,2.5,5.5,2.5s1.7,6.4,4.2,9.4s10.3,4.2,18.7,2.5c8.6-1.7,23.4-9.4,26.8-11.5c3.4-2.2,106.8-11.5,114.6-13.2
							c7.6-1.7,17-1.7,20-6.8C600.1,360.3,577.9,334.3,577.9,334.3z"/>
					</g>
					<g>
						<defs>
							<path id="SVGID_3_" d="M577.9,334.3c0,0-103.5,28.5-120,26.4s-21.7-9.4-25.6-9.4c-3.9,0-14.5,5.1-19.2,4.7
								c-4.7-0.5-10.3-1.7-10.3,1.3s4.2,7.6,6.8,7.6c2.5,0,12.8-0.5,12.8-0.5s-20,5.9-20.9,9.8c-0.8,3.9,1.7,7.2,5.5,8.1
								c3.9,0.8,5.5,2.5,5.5,2.5s1.7,6.4,4.2,9.4s10.3,4.2,18.7,2.5c8.6-1.7,23.4-9.4,26.8-11.5c3.4-2.2,106.8-11.5,114.6-13.2
								c7.6-1.7,17-1.7,20-6.8C600.1,360.3,577.9,334.3,577.9,334.3z"/>
						</defs>
						<clipPath id="SVGID_4_">
							<use xlink:href="#SVGID_3_"  style="overflow:visible;"/>
						</clipPath>
						<path class="st21" d="M452.9,381.3c-17.8,0-13.8-17.8-19.7-14.8c-5.1,2.6-25.3,5.1-31,11.6c0.8,2.1,2.7,3.7,5.2,4.2
							c3.9,0.8,5.5,2.5,5.5,2.5s1.7,6.4,4.2,9.4s10.3,4.2,18.7,2.5c8.6-1.7,23.4-9.4,26.8-11.5c3.4-2.2,106.8-11.5,114.6-13.2
							c6.2-1.4,13.5-1.6,17.7-4.3c1.5-1.5,2.4-2.4,2.4-2.4l-11-10.7C586.2,354.7,470.7,381.3,452.9,381.3z"/>
					</g>
					<g>
						<defs>
							<path id="SVGID_5_" d="M577.9,334.3c0,0-103.5,28.5-120,26.4s-21.7-9.4-25.6-9.4c-3.9,0-14.5,5.1-19.2,4.7
								c-4.7-0.5-10.3-1.7-10.3,1.3s4.2,7.6,6.8,7.6c2.5,0,12.8-0.5,12.8-0.5s-20,5.9-20.9,9.8c-0.8,3.9,1.7,7.2,5.5,8.1
								c3.9,0.8,5.5,2.5,5.5,2.5s1.7,6.4,4.2,9.4s10.3,4.2,18.7,2.5c8.6-1.7,23.4-9.4,26.8-11.5c3.4-2.2,106.8-11.5,114.6-13.2
								c7.6-1.7,17-1.7,20-6.8C600.1,360.3,577.9,334.3,577.9,334.3z"/>
						</defs>
						<clipPath id="SVGID_6_">
							<use xlink:href="#SVGID_5_"  style="overflow:visible;"/>
						</clipPath>
						<path class="st22" d="M452.9,381.3c-17.8,0-13.8-17.8-19.7-14.8c-5.1,2.6-25.3,5.1-31,11.6c0.8,2.1,2.7,3.7,5.2,4.2
							c3.9,0.8,5.5,2.5,5.5,2.5s1.7,6.4,4.2,9.4s10.3,4.2,18.7,2.5c8.6-1.7,23.4-9.4,26.8-11.5c3.4-2.2,106.8-11.5,114.6-13.2
							c6.2-1.4,13.5-1.6,17.7-4.3c1.5-1.5,2.4-2.4,2.4-2.4l-11-10.7C586.2,354.7,470.7,381.3,452.9,381.3z"/>
					</g>
					<g>
						<path id="XMLID_2_" class="st19" d="M577.9,334.3c0,0-103.5,28.5-120,26.4s-21.7-9.4-25.6-9.4c-3.9,0-14.5,5.1-19.2,4.7
							c-4.7-0.5-10.3-1.7-10.3,1.3s4.2,7.6,6.8,7.6c2.5,0,12.8-0.5,12.8-0.5s-20,5.9-20.9,9.8c-0.8,3.9,1.7,7.2,5.5,8.1
							c3.9,0.8,5.5,2.5,5.5,2.5s1.7,6.4,4.2,9.4s10.3,4.2,18.7,2.5c8.6-1.7,23.4-9.4,26.8-11.5c3.4-2.2,106.8-11.5,114.6-13.2
							c7.6-1.7,17-1.7,20-6.8C600.1,360.3,577.9,334.3,577.9,334.3z"/>
					</g>
				</g>
				<g>
					<g>
						<g>
							<g>
								<path id="XMLID_56_" class="st9" d="M665.2,230c0,0-9.4,25.6-21.3,42.6c-11.9,17-17,34.9-9.4,54.1
									c7.6,19.2,24.3,23.4,24.3,23.4s-5.9,56.1-4.2,71.1c1.7,14.9,24.6,32.4,59.2,33.7c34.5,1.3,64.2-11.1,64.2-22.9
									s-24.3-75.3-24.3-88.5s2.2-54.5-9.4-91.5C732.9,214.7,692.5,202.9,665.2,230z"/>
							</g>
							<g>
								<defs>
									<path id="SVGID_7_" d="M665.2,230c0,0-9.4,25.6-21.3,42.6c-11.9,17-17,34.9-9.4,54.1c7.6,19.2,24.3,23.4,24.3,23.4
										s-5.9,56.1-4.2,71.1c1.7,14.9,24.6,32.4,59.2,33.7c34.5,1.3,64.2-11.1,64.2-22.9s-24.3-75.3-24.3-88.5s2.2-54.5-9.4-91.5
										C732.9,214.7,692.5,202.9,665.2,230z"/>
								</defs>
								<clipPath id="SVGID_8_">
									<use xlink:href="#SVGID_7_"  style="overflow:visible;"/>
								</clipPath>
								<path class="st23" d="M744.4,251.8c-6.2-20-20.8-32.6-37.2-35.8c-7.9,1.7-29.6,6.8-34.9,8.1c-2.4,1.7-4.8,3.7-7.1,5.9
									c0,0-9.4,25.6-21.3,42.6c-8,11.4-12.9,23.2-13,35.5c31.4,7.4,79.4,19.5,74.6,20.9c-7,1.9-36.5-13.8-27.6-4
									c8.9,9.9,56.3,55.2,42.4,51.3c-13.8-4-44.4-36.5-36.5-20.8s29.7,41.4,22.7,41.4s-43.5-36.5-30.6-14.8
									c12.8,21.7,71.1,56.3,52.4,61.2c-10.8,2.9-33.8,2.1-47.1,4.3c9,3.9,20.1,6.5,32.6,7c34.5,1.3,64.2-11.1,64.2-22.9
									s-24.3-75.3-24.3-88.5C753.8,330.1,755.8,288.8,744.4,251.8z"/>
							</g>
							<g>
								<path id="XMLID_3_" class="st19" d="M665.2,230c0,0-9.4,25.6-21.3,42.6c-11.9,17-17,34.9-9.4,54.1
									c7.6,19.2,24.3,23.4,24.3,23.4s-5.9,56.1-4.2,71.1c1.7,14.9,24.6,32.4,59.2,33.7c34.5,1.3,64.2-11.1,64.2-22.9
									s-24.3-75.3-24.3-88.5s2.2-54.5-9.4-91.5C732.9,214.7,692.5,202.9,665.2,230z"/>
							</g>
						</g>
						<path class="st19" d="M670.5,333.4c0,0,31.3,50.5,77,64.9"/>
						<path class="st19" d="M666.8,341.7c0,0,12,39.7,43.2,58.9"/>
						<path class="st19" d="M673.3,310c0,0,28.3-12.3,39.8-20.3"/>
						<path class="st19" d="M661.7,312.9c0,0,10.2,2.2,36.2,0"/>
					</g>
					<g>
						<g>
							<path id="XMLID_57_" class="st9" d="M662.7,236.4c0,0-8.1,4.7-17.9,14.9c-9.8,10.3-57,81.7-57,81.7s14,29.3,18.3,30.2
								c4.2,0.8,78.3-62.5,85.1-70.3c6.8-7.6,11.1-21.7,8.9-27.6"/>
						</g>
						<g>
							<defs>
								<path id="SVGID_9_" d="M662.7,236.4c0,0-8.1,4.7-17.9,14.9c-9.8,10.3-57,81.7-57,81.7s14,29.3,18.3,30.2
									c4.2,0.8,78.3-62.5,85.1-70.3c6.8-7.6,11.1-21.7,8.9-27.6"/>
							</defs>
							<clipPath id="SVGID_10_">
								<use xlink:href="#SVGID_9_"  style="overflow:visible;"/>
							</clipPath>
							<path class="st24" d="M691.1,293.1c6.8-7.6,11.1-21.7,8.9-27.6l-16.8-13l-5.4,5.6c0,0-0.3,21.8-19.7,33.5
								c-19.4,11.8-27.6,11.9-30.6,26.7c-3,14.8,7,18.7-4.9,20.8c-11.9,1.9-19.7,3-19.7,10.8c0,2.4,0.2,6.7,0.9,11.8
								c0.9,1,1.7,1.7,2.3,1.8C610.3,364.2,684.4,300.8,691.1,293.1z"/>
						</g>
						<g>
							<path id="XMLID_4_" class="st19" d="M662.7,236.4c0,0-8.1,4.7-17.9,14.9c-9.8,10.3-57,81.7-57,81.7s14,29.3,18.3,30.2
								c4.2,0.8,78.3-62.5,85.1-70.3c6.8-7.6,11.1-21.7,8.9-27.6"/>
						</g>
					</g>
					<path id="XMLID_54_" class="st14" d="M571.5,337.4c0,0,13.2,31.5,16.2,34.9c3,3.4,18.7,1.3,23.8-2.5c5.1-3.9,4.2-11.5,4.2-11.5
						s-19.6-34.5-21.7-36.2c-2.2-1.7-3,2.2-11.9,5.1C573.3,330.1,569.8,331.4,571.5,337.4z"/>
				</g>
				<g>
					<g>
						<g>
							<path id="XMLID_52_" class="st5" d="M592.9,149.6c0,0-0.8,12.3,1.3,16.2c2.2,3.9,8.1,7.6,8.1,12.8s-4.2,11.9-3,15.7
								c1.3,3.9,8.1,4.2,8.1,4.2s12.8,15.7,16.5,21.3c3.9,5.5,5.5,3.4,11.5,1.7c5.9-1.7,18.7-12.8,26-21.3
								c7.2-8.6-4.7-34.5-20.4-51.9c-15.7-17.5-39.1-17-44.3-11.9C591.6,141.5,592.9,149.6,592.9,149.6z"/>
						</g>
						<g>
							<defs>
								<path id="SVGID_11_" d="M592.9,149.6c0,0-0.8,12.3,1.3,16.2c2.2,3.9,8.1,7.6,8.1,12.8s-4.2,11.9-3,15.7
									c1.3,3.9,8.1,4.2,8.1,4.2s12.8,15.7,16.5,21.3c3.9,5.5,5.5,3.4,11.5,1.7c5.9-1.7,18.7-12.8,26-21.3
									c7.2-8.6-4.7-34.5-20.4-51.9c-15.7-17.5-39.1-17-44.3-11.9C591.6,141.5,592.9,149.6,592.9,149.6z"/>
							</defs>
							<clipPath id="SVGID_12_">
								<use xlink:href="#SVGID_11_"  style="overflow:visible;"/>
							</clipPath>
							<path class="st25" d="M626.5,137.7c-1.9,9.7-4,26.1,1.9,37.3c8.9,16.8,15.7,25.7,10.8,39.5c-0.9,2.5-1.8,4.7-2.7,6.5
								c6.4-2.7,17.9-12.9,24.6-20.8c7.2-8.6-4.7-34.5-20.4-51.9C636.6,143.5,631.6,140.1,626.5,137.7z"/>
						</g>
						<g>
							<defs>
								<path id="SVGID_13_" d="M592.9,149.6c0,0-0.8,12.3,1.3,16.2c2.2,3.9,8.1,7.6,8.1,12.8s-4.2,11.9-3,15.7
									c1.3,3.9,8.1,4.2,8.1,4.2s12.8,15.7,16.5,21.3c3.9,5.5,5.5,3.4,11.5,1.7c5.9-1.7,18.7-12.8,26-21.3
									c7.2-8.6-4.7-34.5-20.4-51.9c-15.7-17.5-39.1-17-44.3-11.9C591.6,141.5,592.9,149.6,592.9,149.6z"/>
							</defs>
							<clipPath id="SVGID_14_">
								<use xlink:href="#SVGID_13_"  style="overflow:visible;"/>
							</clipPath>
							<path class="st26" d="M626.5,137.7c-1.9,9.7-4,26.1,1.9,37.3c8.9,16.8,15.7,25.7,10.8,39.5c-0.9,2.5-1.8,4.7-2.7,6.5
								c6.4-2.7,17.9-12.9,24.6-20.8c7.2-8.6-4.7-34.5-20.4-51.9C636.6,143.5,631.6,140.1,626.5,137.7z"/>
						</g>
						<g>
							<path id="XMLID_5_" class="st19" d="M592.9,149.6c0,0-0.8,12.3,1.3,16.2c2.2,3.9,8.1,7.6,8.1,12.8s-4.2,11.9-3,15.7
								c1.3,3.9,8.1,4.2,8.1,4.2s12.8,15.7,16.5,21.3c3.9,5.5,5.5,3.4,11.5,1.7c5.9-1.7,18.7-12.8,26-21.3
								c7.2-8.6-4.7-34.5-20.4-51.9c-15.7-17.5-39.1-17-44.3-11.9C591.6,141.5,592.9,149.6,592.9,149.6z"/>
						</g>
					</g>
					<g>
						<g>
							<path id="XMLID_53_" class="st20" d="M579.6,130.9l-0.1,1.7l-0.8,20.9l22.9,3l5.1-8.9v9.8c0,0,9.8-1.3,20.9,3
								c11.1,4.2,25.1,34.5,24.3,46.8s-11.5,14.9-10.3,33.7s29.8,37.4,51.5,25.6c21.7-11.9,25.1-27.3,34-24.3s22.6,21.3,31-4.7
								s4.7-42.6-15.3-63.9c-20-21.3-35.7-19.6-38.3-36.6c-2.5-17-8.1-40-26.4-52.8C660,71.2,633.5,70.4,611,80.1
								C588.5,90,579.6,119.8,579.6,130.9z"/>
						</g>
						<g>
							<defs>
								<path id="SVGID_15_" d="M579.6,130.9l-0.1,1.7l-0.8,20.9l22.9,3l5.1-8.9v9.8c0,0,9.8-1.3,20.9,3
									c11.1,4.2,25.1,34.5,24.3,46.8s-11.5,14.9-10.3,33.7s29.8,37.4,51.5,25.6c21.7-11.9,25.1-27.3,34-24.3s22.6,21.3,31-4.7
									s4.7-42.6-15.3-63.9c-20-21.3-35.7-19.6-38.3-36.6c-2.5-17-8.1-40-26.4-52.8C660,71.2,633.5,70.4,611,80.1
									C588.5,90,579.6,119.8,579.6,130.9z"/>
							</defs>
							<clipPath id="SVGID_16_">
								<use xlink:href="#SVGID_15_"  style="overflow:visible;"/>
							</clipPath>
							<g class="st27">
								<path class="st8" d="M592.4,140.7c-0.1,0-0.3,0-0.5,0c-2.5-0.6-2.9-4.8-3.1-15.2c-0.1-2.6-0.1-5.5-0.3-7.6
									c0-0.2,0-0.5-0.1-0.6c-2.1,2.4-6.4,12.7-9.6,21.7l-2.3-0.8c8.7-24.2,11.5-23.8,12.4-23.7c1.7,0.2,1.8,2.4,1.9,3.2
									c0.2,2.3,0.2,5.1,0.3,7.8c0.1,4.2,0.2,11.3,1.1,12.8c0.3-0.2,1.1-1.1,2.7-4.1c2.5-5,4.7-7.3,7.1-7.2
									c2.9,0.1,4.3,3.9,5.4,6.6c0.3,0.8,0.7,1.7,0.9,2.1c1,0.2,4.8-3.5,6.8-5.6c0.6-0.6,1.1-1.3,1.7-1.8c0.9-0.9,2.1-1.9,3.4-1.7
									c1.4,0.2,1.9,1.5,2.7,2.7c0.7,1.3,1.4,2.6,2.7,3.7c0.8,0.6,1.1,0.6,1.4,0.5c1.7-0.5,3.9-5.1,6.3-10.5c0.6-1.3,1.1-2.6,1.8-4
									c0.8-1.7,1.9-3.8,3.7-3.5c2.3,0.1,3.3,3.7,4.8,9c1.3,4.3,2.7,9.2,4.8,12c0.6,0.7,1.3,1.5,1.9,1.4c1.9-0.3,4-5.8,5.2-9.1
									c0.8-2.1,1.4-3.8,2.1-4.9c0.7-1.1,1.5-1.4,2.1-1.4c1.8,0.1,3,2.4,4.7,5.7c1.3,2.4,3,5.8,4.3,6.4c0.2,0.1,0.3,0.1,0.5,0
									c0.9-0.5,1.7-3.5,2.4-6c0.8-2.9,1.5-5.8,3-8c0.8-1.3,1.9-2.1,3.3-2.3c3.2-0.5,6.6,2.2,9,4c-0.1-1.3-0.3-3-0.6-4.3
									c-1.3-8-1.6-11.9,0.5-13c0.9-0.5,2.1-0.2,3.3,0.9c1.7,1.5,3.9,3.9,6.2,6.5c4.4,4.9,11.1,12.4,13.8,11.6
									c0.8-0.2,1.1-1.4,1.4-2.3l2.4,0.5c-0.5,2.3-1.5,3.7-3.1,4.1c-3.9,1-9.1-4.4-16.2-12.4c-2.3-2.5-4.3-4.9-5.9-6.3
									c-0.2-0.2-0.5-0.3-0.6-0.5c-0.6,1.5,0.3,7.4,0.8,10.4c0.8,5.7,1,7.2-0.1,7.9c-0.5,0.3-1.1,0.3-1.6-0.1
									c-0.5-0.2-0.9-0.7-1.5-1.1c-1.9-1.5-5-3.9-7.2-3.5c-0.7,0.1-1.1,0.5-1.7,1.1c-1.1,1.7-1.9,4.6-2.6,7.2
									c-0.9,3.5-1.7,6.6-3.7,7.6c-0.6,0.2-1.4,0.5-2.4,0c-2.3-0.9-4-4.2-5.6-7.5c-0.8-1.5-1.8-3.7-2.5-4.2l0,0
									c-0.6,0.9-1.1,2.6-1.8,4.4c-1.8,4.8-3.8,10.3-7.1,10.7c-1.5,0.2-2.9-0.6-4.2-2.3c-2.4-3.1-3.9-8.2-5.2-12.8
									c-0.8-2.9-1.9-6.7-2.7-7.3c0,0.1-0.5,0.5-1.3,2.2c-0.7,1.4-1.3,2.7-1.8,4c-3,6.7-5,11.2-7.9,11.9c-1.1,0.2-2.3,0-3.4-0.9
									c-1.7-1.4-2.6-3.1-3.3-4.4c-0.3-0.6-0.7-1.4-0.9-1.5c0,0-0.3,0.1-1.4,1c-0.6,0.6-1.1,1.1-1.7,1.7c-4,4.1-6.5,6.5-8.8,6.4
									c-0.8-0.1-1.4-0.5-1.8-1.1c-0.3-0.6-0.7-1.4-1.1-2.5c-0.7-1.8-1.9-5-3.3-5.1c-0.3-0.1-2.1,0.3-4.8,5.8
									C595.4,139,593.9,140.7,592.4,140.7z"/>
								<path class="st28" d="M640.2,237.3c0,0,5.9-22.2,11.9-15.2s10.3,9.2,10.8,3.2c0.6-5.9,0-14.6,5.9-6.5
									c5.9,8.1,20.5,16.2,21.7,3.8c1-12.4,2.7-29.2,9.7-20.5c7.1,8.7,13,15.2,13.6,10.3s5.4-8.7,7.5-3.2c2.2,5.4,3.8,10.8,5.4-1.6
									c1.6-12.4-5.9-26,2.2-22.7c8.1,3.2,11.9,14,11.9,8.1c0-5.9-9.7-13-1-10.8c8.7,2.2,9.7,7.5,10.8,4.3c1-3.2-4.9-10.8,2.7-10.8
									"/>
							</g>
						</g>
						<g>
							<path id="XMLID_6_" class="st29" d="M579.6,130.9l-0.1,1.7l-0.8,20.9l22.9,3l5.1-8.9v9.8c0,0,9.8-1.3,20.9,3
								c11.1,4.2,25.1,34.5,24.3,46.8s-11.5,14.9-10.3,33.7s29.8,37.4,51.5,25.6c21.7-11.9,25.1-27.3,34-24.3s22.6,21.3,31-4.7
								s4.7-42.6-15.3-63.9c-20-21.3-35.7-19.6-38.3-36.6c-2.5-17-8.1-40-26.4-52.8C660,71.2,633.5,70.4,611,80.1
								C588.5,90,579.6,119.8,579.6,130.9z"/>
						</g>
					</g>
				</g>
			</g>
			<path class="st4" d="M631.6,187.4"/>
		</g>
	</g>
	<line class="st28" x1="41.7" y1="774.4" x2="921.8" y2="774.4"/>
</g>
</svg>
