<?xml version="1.0" encoding="utf-8"?>
<!-- Generator: Adobe Illustrator 25.2.1, SVG Export Plug-In . SVG Version: 6.00 Build 0)  -->
<svg version="1.1" id="Camada_1" xmlns="http://www.w3.org/2000/svg" xmlns:xlink="http://www.w3.org/1999/xlink" x="0px" y="0px"
	 viewBox="0 0 963.5 774.4" style="enable-background:new 0 0 963.5 774.4;" xml:space="preserve">
<style type="text/css">
	.st0{fill:#343A40;}
	.st1{fill:#FFB8B8;}
	.st2{fill:#DEE2E6;}
	.st3{fill:#212529;}
	.st4{fill:#495057;}
	.st5{fill:#ADB5BD;}
</style>
<path class="st0" d="M0,719.5h963.5v2.2H0V719.5z"/>
<path class="st1" d="M604.5,335.8c0,0-43.2,34-21.6,41.7s35.5-27.8,35.5-27.8L604.5,335.8z"/>
<path class="st2" d="M606.1,323.5l-9.3,15.4c0,0,15.4,0,18.5,23.2l12.3-15.4L606.1,323.5z"/>
<path class="st1" d="M811.3,675.4l1.5,46.3l-18.5,10.8l-7.7-4.6l1.5-52.5H811.3z"/>
<g transform="translate(-118.24522 -62.8178)">
	<path class="st1" d="M820,725.8l3.1,49.4l-43.2,18.5l3.1-26.2c0,0,12.3-20.1,9.3-41.7L820,725.8z"/>
	<path class="st3" d="M886.4,353.9c0,0,24.7,64.8,29.3,105s12.3,146.6,12.3,146.6l15.4,137.4l-43.2,6.2l-18.5-138.9l-41.7-137.4
		l-9.3,137.4l-7.7,125l-40.1,1.5L779.9,607l-17-165.2l9.3-78.7L886.4,353.9z"/>
	<path class="st3" d="M909.5,787.6c0,0,2.5-25.9,21.3-11.4l3.4-2.5l15.4,34c0,0,18.5,26.2-13.9,29.3s-29.3-29.3-29.3-29.3l-3.1-13.9
		l1.5-9.1L909.5,787.6z"/>
	<path class="st3" d="M820,756.7c7.7,4.4,12.5,12.7,12.3,21.6c0,15.4-1.5,17-1.5,17l-23.2,6.2c0,0-15.4-1.5-24.7,7.7
		s-55.6,15.4-55.6,3.1s38.6-32.4,38.6-32.4s11.5-19.4,19.6-17.4s11.2,5,11.2,6.6s-4.6,12.3-4.6,12.3S818.5,775.2,820,756.7
		L820,756.7z"/>
</g>
<circle class="st1" cx="698.7" cy="62.6" r="38.6"/>
<path class="st1" d="M727.2,72.6l17,38.6l-46.3,66.4c0,0-3.1-72.5-12.3-84.9S727.2,72.6,727.2,72.6L727.2,72.6z"/>
<path class="st2" d="M705.6,152.9l7.7-20.1l6.2,1.5l7.7-6.2l10.8-34l15.4,10.8l20.1,202.2l-125,3.1l17-140.5l15.4-40.1l11.1-14.7
	l7.4,22.4L705.6,152.9z"/>
<path class="st4" d="M741.1,239.3l4.7-139.6c0,0,9.2,0.7,12.3,5.3s54,13.9,54,13.9l-9.3,143.5c0,0,38.6,114.2,24.7,120.4
	s-38.6,4.6-38.6,4.6L741.1,239.3z"/>
<path class="st4" d="M666.3,221.6l16.4-94.1l-36.4,24.6l9.3,67.9l-7.7,46.3c0,0-29.3,128.1-20.1,132.7s20.1,0,20.1,0l18.5-129.7
	L666.3,221.6z"/>
<path class="st4" d="M657,149.1l-10.8,3.1l-4.6,61.7l-7.7,54l-37,66.4c0,0,18.5-12.3,26.2,23.2l40.8-71L657,149.1z"/>
<path class="st1" d="M777.4,323.5c0,0-43.2,34-21.6,41.7s35.5-27.8,35.5-27.8L777.4,323.5z"/>
<path class="st2" d="M803.6,340.4l-13.9,17L771.2,325l7.7-13.9L803.6,340.4z"/>
<path class="st4" d="M800.5,124.4l12.3-6.2c0,0,9.3,12.3,10.8,23.2s9.3,24.7,9.3,32.4s21.6,80.3,21.6,80.3l-49.4,100.3
	c0,0-10.8-37-34-40.1l38.6-54l-21.6-38.6L800.5,124.4z"/>
<path class="st3" d="M731,25.9l7.3-2.9c0,0-15.2-16.8-36.4-15.3l6-6.6c0,0-14.6-5.8-27.8,9.5c-7,8-15,17.5-20,28.1h-7.8l3.3,7.2
	L644.1,53l11.7-1.3c-0.7,3.9-0.8,7.9-0.3,11.9c0.5,4,2.5,7.6,5.6,10.1c0,0,9-18.7,9-21.6v7.3c0,0,7.3-6.6,7.3-10.9l4,5.1l2-8l24.5,8
	l-4-6.6l15.2,2.2l-6-8c0,0,17.2,9.5,17.9,17.5c0.7,8,5.7,15.6,5.7,15.6S750.2,36.8,731,25.9L731,25.9z"/>
<ellipse class="st1" cx="730.3" cy="56.4" rx="4.3" ry="5.4"/>
<path class="st5" d="M178.6,318.1H45.4v-37.3h69.5L178.6,318.1z"/>
<path class="st0" d="M45,313v109.1h432.7V313H45z M213.7,403.8H73.2v-15.4h140.6V403.8z M449.5,375.2H73.2v-15.4h376.3V375.2z
	 M449.5,346.7H73.2v-15.4h376.3V346.7z"/>
<path class="st5" d="M178.6,141.7H45.4v-37.3h69.5L178.6,141.7z"/>
<path class="st0" d="M45,138.8v109.1h432.7V138.8L45,138.8z M213.7,229.5H73.2v-15.4h140.6V229.5z M295,201H73.2v-15.4H295L295,201z
	 M449.5,172.4H73.2v-15.4h376.3V172.4z"/>
<path class="st5" d="M178.6,490.9H45.4v-37.3h69.5L178.6,490.9z"/>
<path class="st0" d="M45,483.6v109.1h432.7V483.6H45z M295,574.3H73.2V559H295V574.3z M295,545.8H73.2v-15.4H295V545.8z
	 M449.5,517.2H73.2v-15.4h376.3V517.2z"/>
<path class="st0" d="M600.3,223.7h-61.5v-61.5h41.7v1.5h-40.3v58.6h58.6v-29.3h1.5V223.7z"/>
<path class="st5" d="M569.2,207.6c-1.4-4.2-19.2-18.5-8.3-20.9l9,11.9l41.2-41.2l4.1,4.1L569.2,207.6z"/>
<path class="st0" d="M600.3,397.9h-61.5v-61.5h41.7v1.5h-40.3v58.6h58.6v-29.3h1.5V397.9z"/>
<path class="st5" d="M569.2,381.9c-1.4-4.2-19.2-18.5-8.3-20.9l9,11.9l41.2-41.2l4.1,4.1L569.2,381.9z"/>
<path class="st0" d="M600.3,571.4h-61.5v-61.5h41.7v1.5h-40.3V570h58.6v-29.3h1.5V571.4z"/>
<path class="st5" d="M569.2,555.4c-1.4-4.2-19.2-18.5-8.3-20.9l9,11.9l41.2-41.2l4.1,4.1L569.2,555.4z"/>
</svg>
