<?xml version="1.0" encoding="utf-8"?>
<!-- Generator: Adobe Illustrator 25.2.1, SVG Export Plug-In . SVG Version: 6.00 Build 0)  -->
<svg version="1.1" id="Camada_1" xmlns="http://www.w3.org/2000/svg" xmlns:xlink="http://www.w3.org/1999/xlink" x="0px" y="0px"
	 viewBox="0 0 1058 557" style="enable-background:new 0 0 1058 557;" xml:space="preserve">
<style type="text/css">
	.st0{fill:#E9ECEF;}
	.st1{fill:#212529;}
	.st2{opacity:0.1;fill:#343A40;enable-background:new    ;}
	.st3{fill:#495057;}
	.st4{fill:#FFB8B8;}
	.st5{opacity:0.1;enable-background:new    ;}
	.st6{fill:#343A40;}
	.st7{fill:#ADB5BD;}
	.st8{fill:#D3D3D3;}
	.st9{fill:#D0CDE1;}
	.st10{fill:#F2F2F2;}
	.st11{fill:#FFFFFF;}
	.st12{fill:#FC635D;}
	.st13{fill:#FDBC40;}
	.st14{fill:#34C84A;}
	.st15{opacity:0.3;fill:#ADB5BD;enable-background:new    ;}
	.st16{opacity:0.3;}
</style>
<g id="seo" transform="translate(0 0.001)">
	<path id="Path_2" class="st0" d="M929.1,248.6L829,296l88.6-66.3c-14.4-22.5-30.6-43.8-48.4-63.7L435,274l392.2-149.6
		c-17.9-15.8-37-30.3-57-43.4L108.6,187.5C38.3,275.4,0.1,384.5,0,497h996C995.9,409.8,972.9,324.1,929.1,248.6z"/>
	<path id="Path_3" class="st0" d="M716.1,50.2C648.2,17.1,573.6-0.1,498,0C344.2,0,206.6,69.8,115.3,179.3
		C271.7,145.1,544.1,85.7,716.1,50.2z"/>
	<path id="Path_4" class="st1" d="M996,495c0,15.5-143.7,62-321,62s-321-46.5-321-62s143.7,6,321,6S996,479.5,996,495z"/>
	<path id="Path_5" class="st2" d="M996,495c0,15.5-143.7,62-321,62s-321-46.5-321-62s143.7,6,321,6S996,479.5,996,495z"/>
	<ellipse id="Ellipse_3" class="st3" cx="675" cy="495" rx="321" ry="28"/>
	<path id="Path_6" class="st4" d="M585.6,267.1c0,0,12.9,20.5,8.3,26s34.6,5.7,34.6,5.7s-5.9-29.8-4.2-36.6L585.6,267.1z"/>
	<path id="Path_7" class="st5" d="M585.6,267.1c0,0,12.9,20.5,8.3,26s34.6,5.7,34.6,5.7s-5.9-29.8-4.2-36.6L585.6,267.1z"/>
	<circle id="Ellipse_4" class="st1" cx="606.3" cy="234.1" r="40.5"/>
	<path id="Path_8" class="st4" d="M701.5,453.5v24l24-5l-2-17L701.5,453.5z"/>
	<path id="Path_9" class="st4" d="M786.5,457.5l67,11l-17,25c0,0-47-16-59-16S786.5,457.5,786.5,457.5z"/>
	<path id="Path_10" class="st6" d="M634.5,409.5c0,0,50-58,66-55s23,21,23,21l9,89c0,0-32,3-32,0s-6-67-6-67s-47,104-72,35
		L634.5,409.5z"/>
	<path id="Path_11" class="st6" d="M553.5,448.5c0,0,1,50,31,53s63-20,63-20l54-25.9c0,0,64,33.9,83,24.9c0,0,20-21,7-27s-1,0-1,0
		l-77-40c0,0-15-4-41,7s-61,16-61,16L553.5,448.5z"/>
	<circle id="Ellipse_5" class="st4" cx="603.5" cy="247.5" r="30"/>
	<path id="Path_12" class="st7" d="M646.5,331.5l-2,42c0,0,1,55-8,59c-4.5,2-13.7,6.1-22.1,10.5c-6.3,3.3-12.3,6.8-15.6,9.9
		c-0.9,0.7-1.6,1.6-2.2,2.6c-4,7-30,6-36,1s-2,6-7,8c-4.8,1.9-11.5-13.9-7.4-37.6c0.1-0.8,0.3-1.6,0.4-2.4c4.6-23-2.6-77.9-1.5-99.2
		c0.1-1.6,0.2-3.2,0.5-4.8c3-16,41.3-48.6,48.4-34.7c8.8,17.1,29.1,1.5,32.6-6.3c20-1,27,23,27,23L646.5,331.5z"/>
	<path id="Path_13" class="st8" d="M727.5,468.5c0,0-16,6-21,5s-10,3-10,9s-6,20,3,21s46-1,54,2c0,0,36,1,33-14s-18-14-18-14
		S727.5,475.5,727.5,468.5z"/>
	<path id="Path_14" class="st8" d="M844.5,471.5c0,0,2-6,5-6s27,4,30,3s38-3,32,14s-26,19-26,19s-36-4-41-3s-23,0-20-5
		S846.5,479.5,844.5,471.5z"/>
	<path id="Path_15" class="st9" d="M753.5,327.9l5.5,22.6c0.1,0.3,0.1,0.5,0,0.8L734,429c-0.2,0.7-1,1.2-1.8,0.9
		c-0.5-0.2-0.9-0.6-1-1.2l-3.4-30.3c0-0.2,0-0.4,0.1-0.6l22.8-70.1c0.2-0.7,1-1.2,1.8-0.9C753,327,753.4,327.4,753.5,327.9
		L753.5,327.9z"/>
	<path id="Path_16" class="st10" d="M751.5,329.8l5.1,19.4l-22,70.9l-5.1-21.9L751.5,329.8z"/>
	<path id="Path_17" class="st9" d="M640.9,435.3c0.8,2.5,87.8-0.8,88.6-1.7c0.7-1.1,1.4-2.2,1.9-3.4c0.8-1.7,1.5-3.4,1.5-3.4
		l-3.4-27.3l-86.1-3.1c0,0-2.2,23.2-2.6,33.8C640.6,431.9,640.7,433.6,640.9,435.3L640.9,435.3z"/>
	<path id="Path_18" class="st5" d="M718.5,403.2l1.7,23.6h-38v-23.6H718.5z"/>
	<path id="Path_19" class="st5" d="M669.6,410.8h0.2l-1.1,10.2h-21.1v-10.1h22L669.6,410.8L669.6,410.8z"/>
	<path id="Path_20" class="st5" d="M640.9,435.3c0.8,2.5,87.8-0.8,88.6-1.7c0.7-1.1,1.4-2.2,1.9-3.4h-90.6
		C640.6,431.9,640.7,433.6,640.9,435.3L640.9,435.3z"/>
	<path id="Path_21" class="st1" d="M627.4,162c-3.1,4.4-7.6,7.5-12.8,8.8c-8.9,2.4-0.1,15.8-0.1,15.8s-3.2-4.9,1.4-10
		S628.1,167.8,627.4,162z"/>
	<circle id="Ellipse_6" class="st1" cx="613" cy="189.8" r="11.3"/>
	<rect id="Rectangle_17" x="7" y="238" class="st11" width="477" height="256"/>
	<path id="Path_22" class="st6" d="M627.4,199.3c-9.2-3.5-24.5-5.2-32.4-4l1.1-7.9c7.6,3.9,22.8,5.8,32.4,4L627.4,199.3z"/>
	<path id="Path_23" class="st1" d="M609.6,202.1c0,0-11.5,19.2-38.3,26.4s-0.2,47.5-0.2,47.5s-9.7-14.6,4.3-30.2
		S611.7,219.6,609.6,202.1z"/>
	<path id="Path_24" class="st1" d="M610.5,200.9c0,0,11.1,26.3,23.2,28.8s11.2,44.1-7.8,50.3c0,0,13.9-24.4,2-40.8
		S608.6,210,610.5,200.9z"/>
	<path id="Path_25" class="st5" d="M614.4,443c-2.5,4.7-5.4,9.5-5.9,11.5c-0.3,1.3-4,0.6-9.8-1.6c-11.5-4.4-31.6-14.4-50.2-24.4
		c-0.9-0.5-1.7-1-2.4-1.6c0.1-0.8,0.3-1.6,0.4-2.4c4.6-23-2.6-77.9-1.5-99.2l8.5-2.8l17,16v68c0,0,44,24,47,26
		C619,433.5,616.9,438.2,614.4,443z"/>
	<path id="Path_26" class="st4" d="M651.5,388.5l27,14c0,0,16-17,26-4s-29,17-29,17s-34-8-35-19S651.5,388.5,651.5,388.5z"/>
	<path id="Path_27" class="st4" d="M606.5,425.5l16,4c0,0,18-22,37-14s-24,24-24,24s-23,12-32,2S606.5,425.5,606.5,425.5z"/>
	<path id="Path_28" class="st7" d="M641.5,293.5c1,1,12,9,12,9s3,38-1,46s-7,8-4,12s7,1,3,8s-8,6-5,9s2,4,2,4l12,10
		c0,0-7.4,11.7-16.7,10.9s-17.3-45.9-17.3-45.9L641.5,293.5z"/>
	<path id="Path_29" class="st7" d="M553.5,317.5l-9,3c0,0-24,88,4,103s59,30,60,26s12-20,9-22s-47-26-47-26v-68L553.5,317.5z"/>
	<path id="Path_30" class="st5" d="M567,354l-2,48l53,25l-49-25L567,354z"/>
	<path id="Path_31" class="st3" d="M1013.1,461.6c-20.2,11.9-28.1,35.8-28.1,35.8s24.7,4.6,44.9-7.3c20.2-11.9,28.1-35.8,28.1-35.8
		S1033.2,449.8,1013.1,461.6z"/>
	<path id="Path_32" class="st7" d="M1020.2,469c-11.3,20.5-34.9,29.1-34.9,29.1s-5.3-24.6,5.9-45.1s34.9-29.1,34.9-29.1
		S1031.4,448.5,1020.2,469z"/>
	<circle id="Ellipse_7" class="st12" cx="22" cy="228" r="4"/>
	<circle id="Ellipse_8" class="st13" cx="33" cy="228" r="4"/>
	<circle id="Ellipse_9" class="st14" cx="44" cy="228" r="4"/>
	<rect id="Rectangle_1" x="79" y="378.9" class="st15" width="58" height="6"/>
	<rect id="Rectangle_2" x="79" y="391.9" class="st15" width="54.9" height="6"/>
	<rect id="Rectangle_3" x="79" y="404.9" class="st15" width="40" height="6"/>
	<g id="Group_2" class="st16">
		<rect id="Rectangle_4" x="214" y="378.9" class="st7" width="58" height="6"/>
		<rect id="Rectangle_5" x="214" y="391.9" class="st7" width="54.9" height="6"/>
		<rect id="Rectangle_6" x="214" y="404.9" class="st7" width="40" height="6"/>
		<rect id="Rectangle_7" x="214" y="378.9" class="st15" width="58" height="6"/>
		<rect id="Rectangle_8" x="214" y="391.9" class="st15" width="54.9" height="6"/>
		<rect id="Rectangle_9" x="214" y="404.9" class="st15" width="40" height="6"/>
	</g>
	<rect id="Rectangle_10" x="354" y="378.9" class="st15" width="58" height="6"/>
	<rect id="Rectangle_11" x="354" y="391.9" class="st15" width="54.9" height="6"/>
	<rect id="Rectangle_12" x="354" y="404.9" class="st15" width="40" height="6"/>
	<rect id="Rectangle_13" x="71" y="300.9" class="st15" width="74" height="66"/>
	<rect id="Rectangle_14" x="206" y="300.9" class="st7" width="74" height="66"/>
	<rect id="Rectangle_15" x="346" y="300.9" class="st7" width="74" height="66"/>
	<path id="Path_37" class="st1" d="M485,494H6V217h479V494z M8,492h475V219H8V492z"/>
	<rect id="Rectangle_16" x="7" y="237.1" class="st1" width="477" height="2"/>
</g>
</svg>
